G04 #@! TF.GenerationSoftware,KiCad,Pcbnew,(5.0.2)-1*
G04 #@! TF.CreationDate,2018-12-27T20:38:10+08:00*
G04 #@! TF.ProjectId,lighting,6c696768-7469-46e6-972e-6b696361645f,rev?*
G04 #@! TF.SameCoordinates,Original*
G04 #@! TF.FileFunction,Soldermask,Bot*
G04 #@! TF.FilePolarity,Negative*
%FSLAX45Y45*%
G04 Gerber Fmt 4.5, Leading zero omitted, Abs format (unit mm)*
G04 Created by KiCad (PCBNEW (5.0.2)-1) date 12/27/2018 8:38:10 PM*
%MOMM*%
%LPD*%
G01*
G04 APERTURE LIST*
%ADD10C,0.100000*%
G04 APERTURE END LIST*
D10*
G36*
X23760044Y-24421552D02*
X23766663Y-24422204D01*
X23777985Y-24425638D01*
X23783647Y-24427356D01*
X23796604Y-24434281D01*
X23799299Y-24435722D01*
X23802873Y-24438655D01*
X23813019Y-24446981D01*
X23821345Y-24457127D01*
X23824278Y-24460701D01*
X23824278Y-24460701D01*
X23832644Y-24476353D01*
X23832644Y-24476353D01*
X23837796Y-24493337D01*
X23839536Y-24511000D01*
X23837796Y-24528663D01*
X23834362Y-24539985D01*
X23832644Y-24545647D01*
X23825235Y-24559509D01*
X23824278Y-24561299D01*
X23823441Y-24562319D01*
X23813019Y-24575019D01*
X23802873Y-24583345D01*
X23799299Y-24586278D01*
X23799299Y-24586278D01*
X23783647Y-24594644D01*
X23777985Y-24596362D01*
X23766663Y-24599796D01*
X23760044Y-24600448D01*
X23753426Y-24601100D01*
X23744574Y-24601100D01*
X23737956Y-24600448D01*
X23731337Y-24599796D01*
X23720015Y-24596362D01*
X23714353Y-24594644D01*
X23698701Y-24586278D01*
X23698701Y-24586278D01*
X23695127Y-24583345D01*
X23684981Y-24575019D01*
X23674559Y-24562319D01*
X23673722Y-24561299D01*
X23672765Y-24559509D01*
X23665356Y-24545647D01*
X23663638Y-24539985D01*
X23660204Y-24528663D01*
X23658464Y-24511000D01*
X23660204Y-24493337D01*
X23665356Y-24476353D01*
X23665356Y-24476353D01*
X23673722Y-24460701D01*
X23673722Y-24460701D01*
X23676655Y-24457127D01*
X23684981Y-24446981D01*
X23695127Y-24438655D01*
X23698701Y-24435722D01*
X23701396Y-24434281D01*
X23714353Y-24427356D01*
X23720015Y-24425638D01*
X23731337Y-24422204D01*
X23737956Y-24421552D01*
X23744574Y-24420900D01*
X23753426Y-24420900D01*
X23760044Y-24421552D01*
X23760044Y-24421552D01*
G37*
G36*
X25617100Y-24601100D02*
X25436900Y-24601100D01*
X25436900Y-24420900D01*
X25617100Y-24420900D01*
X25617100Y-24601100D01*
X25617100Y-24601100D01*
G37*
G36*
X25284044Y-24421552D02*
X25290663Y-24422204D01*
X25301985Y-24425638D01*
X25307647Y-24427356D01*
X25320604Y-24434281D01*
X25323299Y-24435722D01*
X25326873Y-24438655D01*
X25337019Y-24446981D01*
X25345345Y-24457127D01*
X25348278Y-24460701D01*
X25348278Y-24460701D01*
X25356644Y-24476353D01*
X25356644Y-24476353D01*
X25361796Y-24493337D01*
X25363536Y-24511000D01*
X25361796Y-24528663D01*
X25358362Y-24539985D01*
X25356644Y-24545647D01*
X25349235Y-24559509D01*
X25348278Y-24561299D01*
X25347441Y-24562319D01*
X25337019Y-24575019D01*
X25326873Y-24583345D01*
X25323299Y-24586278D01*
X25323299Y-24586278D01*
X25307647Y-24594644D01*
X25301985Y-24596362D01*
X25290663Y-24599796D01*
X25284044Y-24600448D01*
X25277426Y-24601100D01*
X25268574Y-24601100D01*
X25261956Y-24600448D01*
X25255337Y-24599796D01*
X25244015Y-24596362D01*
X25238353Y-24594644D01*
X25222701Y-24586278D01*
X25222701Y-24586278D01*
X25219127Y-24583345D01*
X25208981Y-24575019D01*
X25198559Y-24562319D01*
X25197722Y-24561299D01*
X25196765Y-24559509D01*
X25189356Y-24545647D01*
X25187638Y-24539985D01*
X25184204Y-24528663D01*
X25182464Y-24511000D01*
X25184204Y-24493337D01*
X25189356Y-24476353D01*
X25189356Y-24476353D01*
X25197722Y-24460701D01*
X25197722Y-24460701D01*
X25200655Y-24457127D01*
X25208981Y-24446981D01*
X25219127Y-24438655D01*
X25222701Y-24435722D01*
X25225396Y-24434281D01*
X25238353Y-24427356D01*
X25244015Y-24425638D01*
X25255337Y-24422204D01*
X25261956Y-24421552D01*
X25268574Y-24420900D01*
X25277426Y-24420900D01*
X25284044Y-24421552D01*
X25284044Y-24421552D01*
G37*
G36*
X25030044Y-24421552D02*
X25036663Y-24422204D01*
X25047985Y-24425638D01*
X25053647Y-24427356D01*
X25066604Y-24434281D01*
X25069299Y-24435722D01*
X25072873Y-24438655D01*
X25083019Y-24446981D01*
X25091345Y-24457127D01*
X25094278Y-24460701D01*
X25094278Y-24460701D01*
X25102644Y-24476353D01*
X25102644Y-24476353D01*
X25107796Y-24493337D01*
X25109536Y-24511000D01*
X25107796Y-24528663D01*
X25104362Y-24539985D01*
X25102644Y-24545647D01*
X25095235Y-24559509D01*
X25094278Y-24561299D01*
X25093441Y-24562319D01*
X25083019Y-24575019D01*
X25072873Y-24583345D01*
X25069299Y-24586278D01*
X25069299Y-24586278D01*
X25053647Y-24594644D01*
X25047985Y-24596362D01*
X25036663Y-24599796D01*
X25030044Y-24600448D01*
X25023426Y-24601100D01*
X25014574Y-24601100D01*
X25007956Y-24600448D01*
X25001337Y-24599796D01*
X24990015Y-24596362D01*
X24984353Y-24594644D01*
X24968701Y-24586278D01*
X24968701Y-24586278D01*
X24965127Y-24583345D01*
X24954981Y-24575019D01*
X24944559Y-24562319D01*
X24943722Y-24561299D01*
X24942765Y-24559509D01*
X24935356Y-24545647D01*
X24933638Y-24539985D01*
X24930204Y-24528663D01*
X24928464Y-24511000D01*
X24930204Y-24493337D01*
X24935356Y-24476353D01*
X24935356Y-24476353D01*
X24943722Y-24460701D01*
X24943722Y-24460701D01*
X24946655Y-24457127D01*
X24954981Y-24446981D01*
X24965127Y-24438655D01*
X24968701Y-24435722D01*
X24971396Y-24434281D01*
X24984353Y-24427356D01*
X24990015Y-24425638D01*
X25001337Y-24422204D01*
X25007956Y-24421552D01*
X25014574Y-24420900D01*
X25023426Y-24420900D01*
X25030044Y-24421552D01*
X25030044Y-24421552D01*
G37*
G36*
X24776044Y-24421552D02*
X24782663Y-24422204D01*
X24793985Y-24425638D01*
X24799647Y-24427356D01*
X24812604Y-24434281D01*
X24815299Y-24435722D01*
X24818873Y-24438655D01*
X24829019Y-24446981D01*
X24837345Y-24457127D01*
X24840278Y-24460701D01*
X24840278Y-24460701D01*
X24848644Y-24476353D01*
X24848644Y-24476353D01*
X24853796Y-24493337D01*
X24855536Y-24511000D01*
X24853796Y-24528663D01*
X24850362Y-24539985D01*
X24848644Y-24545647D01*
X24841235Y-24559509D01*
X24840278Y-24561299D01*
X24839441Y-24562319D01*
X24829019Y-24575019D01*
X24818873Y-24583345D01*
X24815299Y-24586278D01*
X24815299Y-24586278D01*
X24799647Y-24594644D01*
X24793985Y-24596362D01*
X24782663Y-24599796D01*
X24776044Y-24600448D01*
X24769426Y-24601100D01*
X24760574Y-24601100D01*
X24753956Y-24600448D01*
X24747337Y-24599796D01*
X24736015Y-24596362D01*
X24730353Y-24594644D01*
X24714701Y-24586278D01*
X24714701Y-24586278D01*
X24711127Y-24583345D01*
X24700981Y-24575019D01*
X24690559Y-24562319D01*
X24689722Y-24561299D01*
X24688765Y-24559509D01*
X24681356Y-24545647D01*
X24679638Y-24539985D01*
X24676204Y-24528663D01*
X24674464Y-24511000D01*
X24676204Y-24493337D01*
X24681356Y-24476353D01*
X24681356Y-24476353D01*
X24689722Y-24460701D01*
X24689722Y-24460701D01*
X24692655Y-24457127D01*
X24700981Y-24446981D01*
X24711127Y-24438655D01*
X24714701Y-24435722D01*
X24717396Y-24434281D01*
X24730353Y-24427356D01*
X24736015Y-24425638D01*
X24747337Y-24422204D01*
X24753956Y-24421552D01*
X24760574Y-24420900D01*
X24769426Y-24420900D01*
X24776044Y-24421552D01*
X24776044Y-24421552D01*
G37*
G36*
X24268044Y-24421552D02*
X24274663Y-24422204D01*
X24285985Y-24425638D01*
X24291647Y-24427356D01*
X24304604Y-24434281D01*
X24307299Y-24435722D01*
X24310873Y-24438655D01*
X24321019Y-24446981D01*
X24329345Y-24457127D01*
X24332278Y-24460701D01*
X24332278Y-24460701D01*
X24340644Y-24476353D01*
X24340644Y-24476353D01*
X24345796Y-24493337D01*
X24347536Y-24511000D01*
X24345796Y-24528663D01*
X24342362Y-24539985D01*
X24340644Y-24545647D01*
X24333235Y-24559509D01*
X24332278Y-24561299D01*
X24331441Y-24562319D01*
X24321019Y-24575019D01*
X24310873Y-24583345D01*
X24307299Y-24586278D01*
X24307299Y-24586278D01*
X24291647Y-24594644D01*
X24285985Y-24596362D01*
X24274663Y-24599796D01*
X24268044Y-24600448D01*
X24261426Y-24601100D01*
X24252574Y-24601100D01*
X24245956Y-24600448D01*
X24239337Y-24599796D01*
X24228015Y-24596362D01*
X24222353Y-24594644D01*
X24206701Y-24586278D01*
X24206701Y-24586278D01*
X24203127Y-24583345D01*
X24192981Y-24575019D01*
X24182559Y-24562319D01*
X24181722Y-24561299D01*
X24180765Y-24559509D01*
X24173356Y-24545647D01*
X24171638Y-24539985D01*
X24168204Y-24528663D01*
X24166464Y-24511000D01*
X24168204Y-24493337D01*
X24173356Y-24476353D01*
X24173356Y-24476353D01*
X24181722Y-24460701D01*
X24181722Y-24460701D01*
X24184655Y-24457127D01*
X24192981Y-24446981D01*
X24203127Y-24438655D01*
X24206701Y-24435722D01*
X24209396Y-24434281D01*
X24222353Y-24427356D01*
X24228015Y-24425638D01*
X24239337Y-24422204D01*
X24245956Y-24421552D01*
X24252574Y-24420900D01*
X24261426Y-24420900D01*
X24268044Y-24421552D01*
X24268044Y-24421552D01*
G37*
G36*
X24014044Y-24421552D02*
X24020663Y-24422204D01*
X24031985Y-24425638D01*
X24037647Y-24427356D01*
X24050604Y-24434281D01*
X24053299Y-24435722D01*
X24056873Y-24438655D01*
X24067019Y-24446981D01*
X24075345Y-24457127D01*
X24078278Y-24460701D01*
X24078278Y-24460701D01*
X24086644Y-24476353D01*
X24086644Y-24476353D01*
X24091796Y-24493337D01*
X24093536Y-24511000D01*
X24091796Y-24528663D01*
X24088362Y-24539985D01*
X24086644Y-24545647D01*
X24079235Y-24559509D01*
X24078278Y-24561299D01*
X24077441Y-24562319D01*
X24067019Y-24575019D01*
X24056873Y-24583345D01*
X24053299Y-24586278D01*
X24053299Y-24586278D01*
X24037647Y-24594644D01*
X24031985Y-24596362D01*
X24020663Y-24599796D01*
X24014044Y-24600448D01*
X24007426Y-24601100D01*
X23998574Y-24601100D01*
X23991956Y-24600448D01*
X23985337Y-24599796D01*
X23974015Y-24596362D01*
X23968353Y-24594644D01*
X23952701Y-24586278D01*
X23952701Y-24586278D01*
X23949127Y-24583345D01*
X23938981Y-24575019D01*
X23928559Y-24562319D01*
X23927722Y-24561299D01*
X23926765Y-24559509D01*
X23919356Y-24545647D01*
X23917638Y-24539985D01*
X23914204Y-24528663D01*
X23912464Y-24511000D01*
X23914204Y-24493337D01*
X23919356Y-24476353D01*
X23919356Y-24476353D01*
X23927722Y-24460701D01*
X23927722Y-24460701D01*
X23930655Y-24457127D01*
X23938981Y-24446981D01*
X23949127Y-24438655D01*
X23952701Y-24435722D01*
X23955396Y-24434281D01*
X23968353Y-24427356D01*
X23974015Y-24425638D01*
X23985337Y-24422204D01*
X23991956Y-24421552D01*
X23998574Y-24420900D01*
X24007426Y-24420900D01*
X24014044Y-24421552D01*
X24014044Y-24421552D01*
G37*
G36*
X24522044Y-24421552D02*
X24528663Y-24422204D01*
X24539985Y-24425638D01*
X24545647Y-24427356D01*
X24558604Y-24434281D01*
X24561299Y-24435722D01*
X24564873Y-24438655D01*
X24575019Y-24446981D01*
X24583345Y-24457127D01*
X24586278Y-24460701D01*
X24586278Y-24460701D01*
X24594644Y-24476353D01*
X24594644Y-24476353D01*
X24599796Y-24493337D01*
X24601536Y-24511000D01*
X24599796Y-24528663D01*
X24596362Y-24539985D01*
X24594644Y-24545647D01*
X24587235Y-24559509D01*
X24586278Y-24561299D01*
X24585441Y-24562319D01*
X24575019Y-24575019D01*
X24564873Y-24583345D01*
X24561299Y-24586278D01*
X24561299Y-24586278D01*
X24545647Y-24594644D01*
X24539985Y-24596362D01*
X24528663Y-24599796D01*
X24522044Y-24600448D01*
X24515426Y-24601100D01*
X24506574Y-24601100D01*
X24499956Y-24600448D01*
X24493337Y-24599796D01*
X24482015Y-24596362D01*
X24476353Y-24594644D01*
X24460701Y-24586278D01*
X24460701Y-24586278D01*
X24457127Y-24583345D01*
X24446981Y-24575019D01*
X24436559Y-24562319D01*
X24435722Y-24561299D01*
X24434765Y-24559509D01*
X24427356Y-24545647D01*
X24425638Y-24539985D01*
X24422204Y-24528663D01*
X24420464Y-24511000D01*
X24422204Y-24493337D01*
X24427356Y-24476353D01*
X24427356Y-24476353D01*
X24435722Y-24460701D01*
X24435722Y-24460701D01*
X24438655Y-24457127D01*
X24446981Y-24446981D01*
X24457127Y-24438655D01*
X24460701Y-24435722D01*
X24463396Y-24434281D01*
X24476353Y-24427356D01*
X24482015Y-24425638D01*
X24493337Y-24422204D01*
X24499956Y-24421552D01*
X24506574Y-24420900D01*
X24515426Y-24420900D01*
X24522044Y-24421552D01*
X24522044Y-24421552D01*
G37*
G36*
X18362544Y-24408852D02*
X18369163Y-24409504D01*
X18380485Y-24412938D01*
X18386147Y-24414656D01*
X18397829Y-24420900D01*
X18401799Y-24423022D01*
X18405373Y-24425955D01*
X18415519Y-24434281D01*
X18423845Y-24444427D01*
X18426778Y-24448001D01*
X18426778Y-24448001D01*
X18435144Y-24463653D01*
X18435144Y-24463653D01*
X18440296Y-24480637D01*
X18442036Y-24498300D01*
X18440296Y-24515963D01*
X18436862Y-24527285D01*
X18435144Y-24532947D01*
X18428356Y-24545647D01*
X18426778Y-24548599D01*
X18423845Y-24552173D01*
X18415519Y-24562319D01*
X18405373Y-24570645D01*
X18401799Y-24573578D01*
X18401799Y-24573578D01*
X18386147Y-24581944D01*
X18380485Y-24583662D01*
X18369163Y-24587096D01*
X18362544Y-24587748D01*
X18355926Y-24588400D01*
X18347074Y-24588400D01*
X18340456Y-24587748D01*
X18333837Y-24587096D01*
X18322515Y-24583662D01*
X18316853Y-24581944D01*
X18301201Y-24573578D01*
X18301201Y-24573578D01*
X18297627Y-24570645D01*
X18287481Y-24562319D01*
X18279155Y-24552173D01*
X18276222Y-24548599D01*
X18274644Y-24545647D01*
X18267856Y-24532947D01*
X18266138Y-24527285D01*
X18262704Y-24515963D01*
X18260964Y-24498300D01*
X18262704Y-24480637D01*
X18267856Y-24463653D01*
X18267856Y-24463653D01*
X18276222Y-24448001D01*
X18276222Y-24448001D01*
X18279155Y-24444427D01*
X18287481Y-24434281D01*
X18297627Y-24425955D01*
X18301201Y-24423022D01*
X18305171Y-24420900D01*
X18316853Y-24414656D01*
X18322515Y-24412938D01*
X18333837Y-24409504D01*
X18340456Y-24408852D01*
X18347074Y-24408200D01*
X18355926Y-24408200D01*
X18362544Y-24408852D01*
X18362544Y-24408852D01*
G37*
G36*
X19203600Y-24588400D02*
X19023400Y-24588400D01*
X19023400Y-24408200D01*
X19203600Y-24408200D01*
X19203600Y-24588400D01*
X19203600Y-24588400D01*
G37*
G36*
X18870544Y-24408852D02*
X18877163Y-24409504D01*
X18888485Y-24412938D01*
X18894147Y-24414656D01*
X18905829Y-24420900D01*
X18909799Y-24423022D01*
X18913373Y-24425955D01*
X18923519Y-24434281D01*
X18931845Y-24444427D01*
X18934778Y-24448001D01*
X18934778Y-24448001D01*
X18943144Y-24463653D01*
X18943144Y-24463653D01*
X18948296Y-24480637D01*
X18950036Y-24498300D01*
X18948296Y-24515963D01*
X18944862Y-24527285D01*
X18943144Y-24532947D01*
X18936356Y-24545647D01*
X18934778Y-24548599D01*
X18931845Y-24552173D01*
X18923519Y-24562319D01*
X18913373Y-24570645D01*
X18909799Y-24573578D01*
X18909799Y-24573578D01*
X18894147Y-24581944D01*
X18888485Y-24583662D01*
X18877163Y-24587096D01*
X18870544Y-24587748D01*
X18863926Y-24588400D01*
X18855074Y-24588400D01*
X18848456Y-24587748D01*
X18841837Y-24587096D01*
X18830515Y-24583662D01*
X18824853Y-24581944D01*
X18809201Y-24573578D01*
X18809201Y-24573578D01*
X18805627Y-24570645D01*
X18795481Y-24562319D01*
X18787155Y-24552173D01*
X18784222Y-24548599D01*
X18782644Y-24545647D01*
X18775856Y-24532947D01*
X18774138Y-24527285D01*
X18770704Y-24515963D01*
X18768964Y-24498300D01*
X18770704Y-24480637D01*
X18775856Y-24463653D01*
X18775856Y-24463653D01*
X18784222Y-24448001D01*
X18784222Y-24448001D01*
X18787155Y-24444427D01*
X18795481Y-24434281D01*
X18805627Y-24425955D01*
X18809201Y-24423022D01*
X18813171Y-24420900D01*
X18824853Y-24414656D01*
X18830515Y-24412938D01*
X18841837Y-24409504D01*
X18848456Y-24408852D01*
X18855074Y-24408200D01*
X18863926Y-24408200D01*
X18870544Y-24408852D01*
X18870544Y-24408852D01*
G37*
G36*
X18616544Y-24408852D02*
X18623163Y-24409504D01*
X18634485Y-24412938D01*
X18640147Y-24414656D01*
X18651829Y-24420900D01*
X18655799Y-24423022D01*
X18659373Y-24425955D01*
X18669519Y-24434281D01*
X18677845Y-24444427D01*
X18680778Y-24448001D01*
X18680778Y-24448001D01*
X18689144Y-24463653D01*
X18689144Y-24463653D01*
X18694296Y-24480637D01*
X18696036Y-24498300D01*
X18694296Y-24515963D01*
X18690862Y-24527285D01*
X18689144Y-24532947D01*
X18682356Y-24545647D01*
X18680778Y-24548599D01*
X18677845Y-24552173D01*
X18669519Y-24562319D01*
X18659373Y-24570645D01*
X18655799Y-24573578D01*
X18655799Y-24573578D01*
X18640147Y-24581944D01*
X18634485Y-24583662D01*
X18623163Y-24587096D01*
X18616544Y-24587748D01*
X18609926Y-24588400D01*
X18601074Y-24588400D01*
X18594456Y-24587748D01*
X18587837Y-24587096D01*
X18576515Y-24583662D01*
X18570853Y-24581944D01*
X18555201Y-24573578D01*
X18555201Y-24573578D01*
X18551627Y-24570645D01*
X18541481Y-24562319D01*
X18533155Y-24552173D01*
X18530222Y-24548599D01*
X18528644Y-24545647D01*
X18521856Y-24532947D01*
X18520138Y-24527285D01*
X18516704Y-24515963D01*
X18514964Y-24498300D01*
X18516704Y-24480637D01*
X18521856Y-24463653D01*
X18521856Y-24463653D01*
X18530222Y-24448001D01*
X18530222Y-24448001D01*
X18533155Y-24444427D01*
X18541481Y-24434281D01*
X18551627Y-24425955D01*
X18555201Y-24423022D01*
X18559171Y-24420900D01*
X18570853Y-24414656D01*
X18576515Y-24412938D01*
X18587837Y-24409504D01*
X18594456Y-24408852D01*
X18601074Y-24408200D01*
X18609926Y-24408200D01*
X18616544Y-24408852D01*
X18616544Y-24408852D01*
G37*
G36*
X18108544Y-24408852D02*
X18115163Y-24409504D01*
X18126485Y-24412938D01*
X18132147Y-24414656D01*
X18143829Y-24420900D01*
X18147799Y-24423022D01*
X18151373Y-24425955D01*
X18161519Y-24434281D01*
X18169845Y-24444427D01*
X18172778Y-24448001D01*
X18172778Y-24448001D01*
X18181144Y-24463653D01*
X18181144Y-24463653D01*
X18186296Y-24480637D01*
X18188036Y-24498300D01*
X18186296Y-24515963D01*
X18182862Y-24527285D01*
X18181144Y-24532947D01*
X18174356Y-24545647D01*
X18172778Y-24548599D01*
X18169845Y-24552173D01*
X18161519Y-24562319D01*
X18151373Y-24570645D01*
X18147799Y-24573578D01*
X18147799Y-24573578D01*
X18132147Y-24581944D01*
X18126485Y-24583662D01*
X18115163Y-24587096D01*
X18108544Y-24587748D01*
X18101926Y-24588400D01*
X18093074Y-24588400D01*
X18086456Y-24587748D01*
X18079837Y-24587096D01*
X18068515Y-24583662D01*
X18062853Y-24581944D01*
X18047201Y-24573578D01*
X18047201Y-24573578D01*
X18043627Y-24570645D01*
X18033481Y-24562319D01*
X18025155Y-24552173D01*
X18022222Y-24548599D01*
X18020644Y-24545647D01*
X18013856Y-24532947D01*
X18012138Y-24527285D01*
X18008704Y-24515963D01*
X18006964Y-24498300D01*
X18008704Y-24480637D01*
X18013856Y-24463653D01*
X18013856Y-24463653D01*
X18022222Y-24448001D01*
X18022222Y-24448001D01*
X18025155Y-24444427D01*
X18033481Y-24434281D01*
X18043627Y-24425955D01*
X18047201Y-24423022D01*
X18051171Y-24420900D01*
X18062853Y-24414656D01*
X18068515Y-24412938D01*
X18079837Y-24409504D01*
X18086456Y-24408852D01*
X18093074Y-24408200D01*
X18101926Y-24408200D01*
X18108544Y-24408852D01*
X18108544Y-24408852D01*
G37*
G36*
X17854544Y-24408852D02*
X17861163Y-24409504D01*
X17872485Y-24412938D01*
X17878147Y-24414656D01*
X17889829Y-24420900D01*
X17893799Y-24423022D01*
X17897373Y-24425955D01*
X17907519Y-24434281D01*
X17915845Y-24444427D01*
X17918778Y-24448001D01*
X17918778Y-24448001D01*
X17927144Y-24463653D01*
X17927144Y-24463653D01*
X17932296Y-24480637D01*
X17934036Y-24498300D01*
X17932296Y-24515963D01*
X17928862Y-24527285D01*
X17927144Y-24532947D01*
X17920356Y-24545647D01*
X17918778Y-24548599D01*
X17915845Y-24552173D01*
X17907519Y-24562319D01*
X17897373Y-24570645D01*
X17893799Y-24573578D01*
X17893799Y-24573578D01*
X17878147Y-24581944D01*
X17872485Y-24583662D01*
X17861163Y-24587096D01*
X17854544Y-24587748D01*
X17847926Y-24588400D01*
X17839074Y-24588400D01*
X17832456Y-24587748D01*
X17825837Y-24587096D01*
X17814515Y-24583662D01*
X17808853Y-24581944D01*
X17793201Y-24573578D01*
X17793201Y-24573578D01*
X17789627Y-24570645D01*
X17779481Y-24562319D01*
X17771155Y-24552173D01*
X17768222Y-24548599D01*
X17766644Y-24545647D01*
X17759856Y-24532947D01*
X17758138Y-24527285D01*
X17754704Y-24515963D01*
X17752964Y-24498300D01*
X17754704Y-24480637D01*
X17759856Y-24463653D01*
X17759856Y-24463653D01*
X17768222Y-24448001D01*
X17768222Y-24448001D01*
X17771155Y-24444427D01*
X17779481Y-24434281D01*
X17789627Y-24425955D01*
X17793201Y-24423022D01*
X17797171Y-24420900D01*
X17808853Y-24414656D01*
X17814515Y-24412938D01*
X17825837Y-24409504D01*
X17832456Y-24408852D01*
X17839074Y-24408200D01*
X17847926Y-24408200D01*
X17854544Y-24408852D01*
X17854544Y-24408852D01*
G37*
G36*
X17600544Y-24408852D02*
X17607163Y-24409504D01*
X17618485Y-24412938D01*
X17624147Y-24414656D01*
X17635829Y-24420900D01*
X17639799Y-24423022D01*
X17643373Y-24425955D01*
X17653519Y-24434281D01*
X17661845Y-24444427D01*
X17664778Y-24448001D01*
X17664778Y-24448001D01*
X17673144Y-24463653D01*
X17673144Y-24463653D01*
X17678296Y-24480637D01*
X17680036Y-24498300D01*
X17678296Y-24515963D01*
X17674862Y-24527285D01*
X17673144Y-24532947D01*
X17666356Y-24545647D01*
X17664778Y-24548599D01*
X17661845Y-24552173D01*
X17653519Y-24562319D01*
X17643373Y-24570645D01*
X17639799Y-24573578D01*
X17639799Y-24573578D01*
X17624147Y-24581944D01*
X17618485Y-24583662D01*
X17607163Y-24587096D01*
X17600544Y-24587748D01*
X17593926Y-24588400D01*
X17585074Y-24588400D01*
X17578456Y-24587748D01*
X17571837Y-24587096D01*
X17560515Y-24583662D01*
X17554853Y-24581944D01*
X17539201Y-24573578D01*
X17539201Y-24573578D01*
X17535627Y-24570645D01*
X17525481Y-24562319D01*
X17517155Y-24552173D01*
X17514222Y-24548599D01*
X17512644Y-24545647D01*
X17505856Y-24532947D01*
X17504138Y-24527285D01*
X17500704Y-24515963D01*
X17498964Y-24498300D01*
X17500704Y-24480637D01*
X17505856Y-24463653D01*
X17505856Y-24463653D01*
X17514222Y-24448001D01*
X17514222Y-24448001D01*
X17517155Y-24444427D01*
X17525481Y-24434281D01*
X17535627Y-24425955D01*
X17539201Y-24423022D01*
X17543171Y-24420900D01*
X17554853Y-24414656D01*
X17560515Y-24412938D01*
X17571837Y-24409504D01*
X17578456Y-24408852D01*
X17585074Y-24408200D01*
X17593926Y-24408200D01*
X17600544Y-24408852D01*
X17600544Y-24408852D01*
G37*
G36*
X17346544Y-24408852D02*
X17353163Y-24409504D01*
X17364485Y-24412938D01*
X17370147Y-24414656D01*
X17381829Y-24420900D01*
X17385799Y-24423022D01*
X17389373Y-24425955D01*
X17399519Y-24434281D01*
X17407845Y-24444427D01*
X17410778Y-24448001D01*
X17410778Y-24448001D01*
X17419144Y-24463653D01*
X17419144Y-24463653D01*
X17424296Y-24480637D01*
X17426036Y-24498300D01*
X17424296Y-24515963D01*
X17420862Y-24527285D01*
X17419144Y-24532947D01*
X17412356Y-24545647D01*
X17410778Y-24548599D01*
X17407845Y-24552173D01*
X17399519Y-24562319D01*
X17389373Y-24570645D01*
X17385799Y-24573578D01*
X17385799Y-24573578D01*
X17370147Y-24581944D01*
X17364485Y-24583662D01*
X17353163Y-24587096D01*
X17346544Y-24587748D01*
X17339926Y-24588400D01*
X17331074Y-24588400D01*
X17324456Y-24587748D01*
X17317837Y-24587096D01*
X17306515Y-24583662D01*
X17300853Y-24581944D01*
X17285201Y-24573578D01*
X17285201Y-24573578D01*
X17281627Y-24570645D01*
X17271481Y-24562319D01*
X17263155Y-24552173D01*
X17260222Y-24548599D01*
X17258644Y-24545647D01*
X17251856Y-24532947D01*
X17250138Y-24527285D01*
X17246704Y-24515963D01*
X17244964Y-24498300D01*
X17246704Y-24480637D01*
X17251856Y-24463653D01*
X17251856Y-24463653D01*
X17260222Y-24448001D01*
X17260222Y-24448001D01*
X17263155Y-24444427D01*
X17271481Y-24434281D01*
X17281627Y-24425955D01*
X17285201Y-24423022D01*
X17289171Y-24420900D01*
X17300853Y-24414656D01*
X17306515Y-24412938D01*
X17317837Y-24409504D01*
X17324456Y-24408852D01*
X17331074Y-24408200D01*
X17339926Y-24408200D01*
X17346544Y-24408852D01*
X17346544Y-24408852D01*
G37*
G36*
X28626221Y-22631400D02*
X28498800Y-22758821D01*
X28371379Y-22631400D01*
X28498800Y-22503979D01*
X28626221Y-22631400D01*
X28626221Y-22631400D01*
G37*
G36*
X28688871Y-22362290D02*
X28696068Y-22362999D01*
X28707390Y-22366433D01*
X28713052Y-22368151D01*
X28726914Y-22375560D01*
X28728704Y-22376517D01*
X28732278Y-22379450D01*
X28742424Y-22387776D01*
X28750750Y-22397922D01*
X28753683Y-22401496D01*
X28753683Y-22401496D01*
X28762049Y-22417148D01*
X28762049Y-22417148D01*
X28767201Y-22434132D01*
X28768941Y-22451795D01*
X28767201Y-22469458D01*
X28767016Y-22470070D01*
X28762049Y-22486442D01*
X28754640Y-22500304D01*
X28753683Y-22502094D01*
X28752136Y-22503979D01*
X28742424Y-22515813D01*
X28732278Y-22524140D01*
X28728704Y-22527073D01*
X28728704Y-22527073D01*
X28713052Y-22535439D01*
X28707390Y-22537156D01*
X28696068Y-22540591D01*
X28689449Y-22541243D01*
X28682831Y-22541895D01*
X28673979Y-22541895D01*
X28667361Y-22541243D01*
X28660742Y-22540591D01*
X28649420Y-22537156D01*
X28643758Y-22535439D01*
X28628106Y-22527073D01*
X28628106Y-22527073D01*
X28624532Y-22524140D01*
X28614386Y-22515813D01*
X28604675Y-22503979D01*
X28603127Y-22502094D01*
X28602170Y-22500304D01*
X28594761Y-22486442D01*
X28589795Y-22470070D01*
X28589609Y-22469458D01*
X28587869Y-22451795D01*
X28589609Y-22434132D01*
X28594761Y-22417148D01*
X28594761Y-22417148D01*
X28603127Y-22401496D01*
X28603127Y-22401496D01*
X28606060Y-22397922D01*
X28614386Y-22387776D01*
X28624532Y-22379450D01*
X28628106Y-22376517D01*
X28629896Y-22375560D01*
X28643758Y-22368151D01*
X28649420Y-22366433D01*
X28660742Y-22362999D01*
X28667939Y-22362290D01*
X28673979Y-22361695D01*
X28682831Y-22361695D01*
X28688871Y-22362290D01*
X28688871Y-22362290D01*
G37*
G36*
X14472091Y-22296921D02*
X14479288Y-22297629D01*
X14490611Y-22301064D01*
X14496272Y-22302781D01*
X14503859Y-22306837D01*
X14511925Y-22311148D01*
X14515499Y-22314081D01*
X14525644Y-22322407D01*
X14533970Y-22332553D01*
X14536903Y-22336127D01*
X14536904Y-22336127D01*
X14545270Y-22351779D01*
X14545270Y-22351779D01*
X14550422Y-22368763D01*
X14552162Y-22386426D01*
X14550422Y-22404088D01*
X14546987Y-22415411D01*
X14545270Y-22421072D01*
X14538289Y-22434132D01*
X14536903Y-22436725D01*
X14533970Y-22440299D01*
X14525644Y-22450444D01*
X14515499Y-22458770D01*
X14511925Y-22461703D01*
X14511925Y-22461704D01*
X14496272Y-22470070D01*
X14490611Y-22471787D01*
X14479288Y-22475222D01*
X14472670Y-22475874D01*
X14466052Y-22476526D01*
X14457200Y-22476526D01*
X14450581Y-22475874D01*
X14443963Y-22475222D01*
X14432640Y-22471787D01*
X14426979Y-22470070D01*
X14411327Y-22461704D01*
X14411327Y-22461703D01*
X14407753Y-22458770D01*
X14397607Y-22450444D01*
X14389281Y-22440299D01*
X14386348Y-22436725D01*
X14384962Y-22434132D01*
X14377981Y-22421072D01*
X14376264Y-22415411D01*
X14372829Y-22404088D01*
X14371090Y-22386426D01*
X14372829Y-22368763D01*
X14377981Y-22351779D01*
X14377981Y-22351779D01*
X14386348Y-22336127D01*
X14386348Y-22336127D01*
X14389281Y-22332553D01*
X14397607Y-22322407D01*
X14407753Y-22314081D01*
X14411327Y-22311148D01*
X14419393Y-22306837D01*
X14426979Y-22302781D01*
X14432640Y-22301064D01*
X14443963Y-22297629D01*
X14451161Y-22296921D01*
X14457200Y-22296326D01*
X14466052Y-22296326D01*
X14472091Y-22296921D01*
X14472091Y-22296921D01*
G37*
G36*
X28868475Y-22182685D02*
X28875673Y-22183394D01*
X28886995Y-22186828D01*
X28892657Y-22188546D01*
X28906519Y-22195955D01*
X28908309Y-22196912D01*
X28911883Y-22199845D01*
X28922029Y-22208171D01*
X28930355Y-22218317D01*
X28933288Y-22221891D01*
X28933288Y-22221891D01*
X28941654Y-22237543D01*
X28941654Y-22237543D01*
X28946806Y-22254527D01*
X28948546Y-22272190D01*
X28946806Y-22289853D01*
X28945058Y-22295617D01*
X28941654Y-22306837D01*
X28934245Y-22320699D01*
X28933288Y-22322489D01*
X28930355Y-22326063D01*
X28922029Y-22336208D01*
X28911883Y-22344535D01*
X28908309Y-22347468D01*
X28908309Y-22347468D01*
X28892657Y-22355834D01*
X28886995Y-22357551D01*
X28875673Y-22360986D01*
X28869054Y-22361638D01*
X28862436Y-22362290D01*
X28853584Y-22362290D01*
X28846966Y-22361638D01*
X28840347Y-22360986D01*
X28829025Y-22357551D01*
X28823363Y-22355834D01*
X28807711Y-22347468D01*
X28807711Y-22347468D01*
X28804137Y-22344535D01*
X28793992Y-22336208D01*
X28785665Y-22326063D01*
X28782732Y-22322489D01*
X28781775Y-22320699D01*
X28774366Y-22306837D01*
X28770962Y-22295617D01*
X28769214Y-22289853D01*
X28767474Y-22272190D01*
X28769214Y-22254527D01*
X28774366Y-22237543D01*
X28774366Y-22237543D01*
X28782732Y-22221891D01*
X28782732Y-22221891D01*
X28785665Y-22218317D01*
X28793992Y-22208171D01*
X28804137Y-22199845D01*
X28807711Y-22196912D01*
X28809501Y-22195955D01*
X28823363Y-22188546D01*
X28829025Y-22186828D01*
X28840347Y-22183394D01*
X28847545Y-22182685D01*
X28853584Y-22182090D01*
X28862436Y-22182090D01*
X28868475Y-22182685D01*
X28868475Y-22182685D01*
G37*
G36*
X14292486Y-22117315D02*
X14299683Y-22118024D01*
X14311006Y-22121459D01*
X14316667Y-22123176D01*
X14324254Y-22127231D01*
X14332320Y-22131543D01*
X14335893Y-22134476D01*
X14346039Y-22142802D01*
X14354365Y-22152948D01*
X14357298Y-22156521D01*
X14357298Y-22156522D01*
X14365665Y-22172174D01*
X14365665Y-22172174D01*
X14370817Y-22189158D01*
X14372556Y-22206821D01*
X14370817Y-22224483D01*
X14367382Y-22235806D01*
X14365665Y-22241467D01*
X14358684Y-22254527D01*
X14357298Y-22257120D01*
X14354365Y-22260693D01*
X14346039Y-22270839D01*
X14335893Y-22279165D01*
X14332320Y-22282098D01*
X14332319Y-22282098D01*
X14316667Y-22290465D01*
X14311006Y-22292182D01*
X14299683Y-22295617D01*
X14293065Y-22296269D01*
X14286446Y-22296921D01*
X14277594Y-22296921D01*
X14270976Y-22296269D01*
X14264358Y-22295617D01*
X14253035Y-22292182D01*
X14247374Y-22290465D01*
X14231722Y-22282098D01*
X14231721Y-22282098D01*
X14228148Y-22279165D01*
X14218002Y-22270839D01*
X14209676Y-22260693D01*
X14206743Y-22257120D01*
X14205357Y-22254527D01*
X14198376Y-22241467D01*
X14196659Y-22235806D01*
X14193224Y-22224483D01*
X14191485Y-22206821D01*
X14193224Y-22189158D01*
X14198376Y-22172174D01*
X14198376Y-22172174D01*
X14206743Y-22156522D01*
X14206743Y-22156521D01*
X14209676Y-22152948D01*
X14218002Y-22142802D01*
X14228148Y-22134476D01*
X14231721Y-22131543D01*
X14239787Y-22127231D01*
X14247374Y-22123176D01*
X14253035Y-22121459D01*
X14264358Y-22118024D01*
X14271554Y-22117315D01*
X14277594Y-22116721D01*
X14286446Y-22116721D01*
X14292486Y-22117315D01*
X14292486Y-22117315D01*
G37*
G36*
X29048081Y-22003080D02*
X29055278Y-22003788D01*
X29066601Y-22007223D01*
X29072262Y-22008940D01*
X29086124Y-22016350D01*
X29087914Y-22017307D01*
X29091488Y-22020240D01*
X29101634Y-22028566D01*
X29109960Y-22038712D01*
X29112893Y-22042286D01*
X29112893Y-22042286D01*
X29121260Y-22057938D01*
X29121260Y-22057938D01*
X29126412Y-22074922D01*
X29128151Y-22092585D01*
X29126412Y-22110247D01*
X29126226Y-22110860D01*
X29121260Y-22127231D01*
X29113850Y-22141093D01*
X29112893Y-22142884D01*
X29109960Y-22146458D01*
X29101634Y-22156603D01*
X29091488Y-22164929D01*
X29087914Y-22167862D01*
X29087914Y-22167863D01*
X29072262Y-22176229D01*
X29066601Y-22177946D01*
X29055278Y-22181381D01*
X29048660Y-22182033D01*
X29042041Y-22182685D01*
X29033189Y-22182685D01*
X29026571Y-22182033D01*
X29019953Y-22181381D01*
X29008630Y-22177946D01*
X29002969Y-22176229D01*
X28987316Y-22167863D01*
X28987316Y-22167862D01*
X28983742Y-22164929D01*
X28973597Y-22156603D01*
X28965271Y-22146458D01*
X28962338Y-22142884D01*
X28961381Y-22141093D01*
X28953971Y-22127231D01*
X28949005Y-22110860D01*
X28948819Y-22110247D01*
X28947079Y-22092585D01*
X28948819Y-22074922D01*
X28953971Y-22057938D01*
X28953971Y-22057938D01*
X28962337Y-22042286D01*
X28962338Y-22042286D01*
X28965271Y-22038712D01*
X28973597Y-22028566D01*
X28983742Y-22020240D01*
X28987316Y-22017307D01*
X28989107Y-22016350D01*
X29002969Y-22008940D01*
X29008630Y-22007223D01*
X29019953Y-22003788D01*
X29027149Y-22003080D01*
X29033189Y-22002485D01*
X29042041Y-22002485D01*
X29048081Y-22003080D01*
X29048081Y-22003080D01*
G37*
G36*
X14112881Y-21937710D02*
X14120078Y-21938419D01*
X14131401Y-21941854D01*
X14137062Y-21943571D01*
X14144648Y-21947626D01*
X14152714Y-21951938D01*
X14156288Y-21954871D01*
X14166434Y-21963197D01*
X14174760Y-21973343D01*
X14177693Y-21976916D01*
X14177693Y-21976917D01*
X14186060Y-21992569D01*
X14186060Y-21992569D01*
X14191212Y-22009553D01*
X14192951Y-22027215D01*
X14191212Y-22044878D01*
X14187777Y-22056201D01*
X14186060Y-22061862D01*
X14179079Y-22074922D01*
X14177693Y-22077515D01*
X14174760Y-22081088D01*
X14166434Y-22091234D01*
X14156288Y-22099560D01*
X14152714Y-22102493D01*
X14152714Y-22102493D01*
X14137062Y-22110860D01*
X14131401Y-22112577D01*
X14120078Y-22116012D01*
X14113460Y-22116664D01*
X14106841Y-22117315D01*
X14097989Y-22117315D01*
X14091371Y-22116664D01*
X14084753Y-22116012D01*
X14073430Y-22112577D01*
X14067769Y-22110860D01*
X14052116Y-22102493D01*
X14052116Y-22102493D01*
X14048542Y-22099560D01*
X14038397Y-22091234D01*
X14030071Y-22081088D01*
X14027138Y-22077515D01*
X14025752Y-22074922D01*
X14018771Y-22061862D01*
X14017054Y-22056201D01*
X14013619Y-22044878D01*
X14011879Y-22027215D01*
X14013619Y-22009553D01*
X14018771Y-21992569D01*
X14018771Y-21992569D01*
X14027137Y-21976917D01*
X14027138Y-21976916D01*
X14030071Y-21973343D01*
X14038397Y-21963197D01*
X14048542Y-21954871D01*
X14052116Y-21951938D01*
X14060182Y-21947626D01*
X14067769Y-21943571D01*
X14073430Y-21941854D01*
X14084753Y-21938419D01*
X14091949Y-21937710D01*
X14097989Y-21937115D01*
X14106841Y-21937115D01*
X14112881Y-21937710D01*
X14112881Y-21937710D01*
G37*
G36*
X29227686Y-21823474D02*
X29234883Y-21824183D01*
X29246206Y-21827618D01*
X29251867Y-21829335D01*
X29265729Y-21836745D01*
X29267520Y-21837702D01*
X29271093Y-21840635D01*
X29281239Y-21848961D01*
X29289565Y-21859107D01*
X29292498Y-21862680D01*
X29292498Y-21862681D01*
X29300865Y-21878333D01*
X29300865Y-21878333D01*
X29306017Y-21895317D01*
X29307756Y-21912980D01*
X29306017Y-21930642D01*
X29305831Y-21931255D01*
X29300865Y-21947626D01*
X29293455Y-21961488D01*
X29292498Y-21963279D01*
X29289565Y-21966852D01*
X29281239Y-21976998D01*
X29271093Y-21985324D01*
X29267520Y-21988257D01*
X29267519Y-21988257D01*
X29251867Y-21996624D01*
X29246206Y-21998341D01*
X29234883Y-22001776D01*
X29228265Y-22002428D01*
X29221646Y-22003080D01*
X29212794Y-22003080D01*
X29206176Y-22002428D01*
X29199558Y-22001776D01*
X29188235Y-21998341D01*
X29182574Y-21996624D01*
X29166922Y-21988257D01*
X29166921Y-21988257D01*
X29163348Y-21985324D01*
X29153202Y-21976998D01*
X29144876Y-21966852D01*
X29141943Y-21963279D01*
X29140986Y-21961488D01*
X29133576Y-21947626D01*
X29128610Y-21931255D01*
X29128424Y-21930642D01*
X29126685Y-21912980D01*
X29128424Y-21895317D01*
X29133576Y-21878333D01*
X29133576Y-21878333D01*
X29141943Y-21862681D01*
X29141943Y-21862680D01*
X29144876Y-21859107D01*
X29153202Y-21848961D01*
X29163348Y-21840635D01*
X29166921Y-21837702D01*
X29168712Y-21836745D01*
X29182574Y-21829335D01*
X29188235Y-21827618D01*
X29199558Y-21824183D01*
X29206754Y-21823474D01*
X29212794Y-21822880D01*
X29221646Y-21822880D01*
X29227686Y-21823474D01*
X29227686Y-21823474D01*
G37*
G36*
X13933276Y-21758105D02*
X13940473Y-21758814D01*
X13951796Y-21762249D01*
X13957457Y-21763966D01*
X13969254Y-21770272D01*
X13973109Y-21772333D01*
X13974857Y-21773767D01*
X13986829Y-21783592D01*
X13995155Y-21793737D01*
X13998088Y-21797311D01*
X13998088Y-21797311D01*
X14006455Y-21812964D01*
X14006455Y-21812964D01*
X14011607Y-21829948D01*
X14013346Y-21847610D01*
X14011607Y-21865273D01*
X14008172Y-21876596D01*
X14006455Y-21882257D01*
X13999474Y-21895317D01*
X13998088Y-21897909D01*
X13995155Y-21901483D01*
X13986829Y-21911629D01*
X13976683Y-21919955D01*
X13973109Y-21922888D01*
X13973109Y-21922888D01*
X13957457Y-21931255D01*
X13951796Y-21932972D01*
X13940473Y-21936407D01*
X13933855Y-21937058D01*
X13927236Y-21937710D01*
X13918384Y-21937710D01*
X13911766Y-21937058D01*
X13905148Y-21936407D01*
X13893825Y-21932972D01*
X13888164Y-21931255D01*
X13872511Y-21922888D01*
X13872511Y-21922888D01*
X13868937Y-21919955D01*
X13858792Y-21911629D01*
X13850465Y-21901483D01*
X13847532Y-21897909D01*
X13846147Y-21895317D01*
X13839166Y-21882257D01*
X13837449Y-21876596D01*
X13834014Y-21865273D01*
X13832274Y-21847610D01*
X13834014Y-21829948D01*
X13839166Y-21812964D01*
X13839166Y-21812964D01*
X13847532Y-21797311D01*
X13847532Y-21797311D01*
X13850465Y-21793737D01*
X13858792Y-21783592D01*
X13870764Y-21773767D01*
X13872511Y-21772333D01*
X13876367Y-21770272D01*
X13888164Y-21763966D01*
X13893825Y-21762249D01*
X13905148Y-21758814D01*
X13912344Y-21758105D01*
X13918384Y-21757510D01*
X13927236Y-21757510D01*
X13933276Y-21758105D01*
X13933276Y-21758105D01*
G37*
G36*
X24290792Y-21533233D02*
X24301649Y-21536527D01*
X24311656Y-21541876D01*
X24320426Y-21549074D01*
X24327624Y-21557844D01*
X24332973Y-21567851D01*
X24336267Y-21578708D01*
X24337379Y-21590000D01*
X24336267Y-21601292D01*
X24332973Y-21612149D01*
X24329959Y-21617788D01*
X24327624Y-21622156D01*
X24320426Y-21630926D01*
X24311656Y-21638124D01*
X24303514Y-21642476D01*
X24301477Y-21643837D01*
X24299744Y-21645570D01*
X24298383Y-21647608D01*
X24297445Y-21649871D01*
X24296967Y-21652275D01*
X24296967Y-21654725D01*
X24297445Y-21657129D01*
X24298383Y-21659392D01*
X24299744Y-21661430D01*
X24301477Y-21663163D01*
X24303514Y-21664524D01*
X24311656Y-21668876D01*
X24320426Y-21676074D01*
X24327624Y-21684844D01*
X24332973Y-21694851D01*
X24336267Y-21705708D01*
X24337379Y-21717000D01*
X24336267Y-21728292D01*
X24332973Y-21739149D01*
X24332973Y-21739150D01*
X24327624Y-21749156D01*
X24320426Y-21757926D01*
X24312736Y-21764237D01*
X24311004Y-21765970D01*
X24309642Y-21768008D01*
X24308705Y-21770272D01*
X24308227Y-21772675D01*
X24308227Y-21775125D01*
X24308705Y-21777529D01*
X24309642Y-21779793D01*
X24311004Y-21781830D01*
X24312736Y-21783563D01*
X24314774Y-21784924D01*
X24317038Y-21785862D01*
X24320666Y-21786400D01*
X24337100Y-21786400D01*
X24337100Y-21901600D01*
X24176900Y-21901600D01*
X24176900Y-21786400D01*
X24193334Y-21786400D01*
X24195772Y-21786160D01*
X24198117Y-21785449D01*
X24200278Y-21784293D01*
X24202172Y-21782739D01*
X24203727Y-21780845D01*
X24204882Y-21778684D01*
X24205593Y-21776339D01*
X24205834Y-21773900D01*
X24205593Y-21771461D01*
X24204882Y-21769117D01*
X24203727Y-21766955D01*
X24201263Y-21764237D01*
X24193574Y-21757926D01*
X24186376Y-21749156D01*
X24181027Y-21739150D01*
X24181027Y-21739149D01*
X24177733Y-21728292D01*
X24176621Y-21717000D01*
X24177733Y-21705708D01*
X24181027Y-21694851D01*
X24186376Y-21684844D01*
X24193574Y-21676074D01*
X24202344Y-21668876D01*
X24210486Y-21664524D01*
X24212523Y-21663163D01*
X24214256Y-21661430D01*
X24215617Y-21659393D01*
X24216555Y-21657129D01*
X24217033Y-21654725D01*
X24217033Y-21652275D01*
X24216555Y-21649872D01*
X24215617Y-21647608D01*
X24214256Y-21645570D01*
X24212523Y-21643837D01*
X24210486Y-21642476D01*
X24202344Y-21638124D01*
X24193574Y-21630926D01*
X24186376Y-21622156D01*
X24184041Y-21617788D01*
X24181027Y-21612149D01*
X24177733Y-21601292D01*
X24176621Y-21590000D01*
X24177733Y-21578708D01*
X24181027Y-21567851D01*
X24186376Y-21557844D01*
X24193574Y-21549074D01*
X24202344Y-21541876D01*
X24212351Y-21536527D01*
X24223208Y-21533233D01*
X24231670Y-21532400D01*
X24282330Y-21532400D01*
X24290792Y-21533233D01*
X24290792Y-21533233D01*
G37*
G36*
X29407292Y-21643869D02*
X29414488Y-21644578D01*
X29421703Y-21646767D01*
X29431472Y-21649730D01*
X29438306Y-21653383D01*
X29447125Y-21658097D01*
X29449728Y-21660233D01*
X29460844Y-21669356D01*
X29469170Y-21679502D01*
X29472103Y-21683075D01*
X29472103Y-21683076D01*
X29480470Y-21698728D01*
X29480470Y-21698728D01*
X29485622Y-21715712D01*
X29487361Y-21733374D01*
X29485622Y-21751037D01*
X29483478Y-21758105D01*
X29480470Y-21768021D01*
X29474771Y-21778684D01*
X29472103Y-21783674D01*
X29471077Y-21784924D01*
X29460844Y-21797393D01*
X29450698Y-21805719D01*
X29447125Y-21808652D01*
X29447124Y-21808652D01*
X29431472Y-21817019D01*
X29425811Y-21818736D01*
X29414488Y-21822171D01*
X29407870Y-21822823D01*
X29401252Y-21823474D01*
X29392400Y-21823474D01*
X29385781Y-21822823D01*
X29379163Y-21822171D01*
X29367840Y-21818736D01*
X29362179Y-21817019D01*
X29346527Y-21808652D01*
X29346526Y-21808652D01*
X29342953Y-21805719D01*
X29332807Y-21797393D01*
X29322574Y-21784924D01*
X29321548Y-21783674D01*
X29318881Y-21778684D01*
X29313181Y-21768021D01*
X29310173Y-21758105D01*
X29308029Y-21751037D01*
X29306290Y-21733374D01*
X29308029Y-21715712D01*
X29313181Y-21698728D01*
X29313181Y-21698728D01*
X29321548Y-21683076D01*
X29321548Y-21683075D01*
X29324481Y-21679502D01*
X29332807Y-21669356D01*
X29343923Y-21660233D01*
X29346526Y-21658097D01*
X29355345Y-21653383D01*
X29362179Y-21649730D01*
X29371948Y-21646767D01*
X29379163Y-21644578D01*
X29386360Y-21643869D01*
X29392400Y-21643274D01*
X29401252Y-21643274D01*
X29407292Y-21643869D01*
X29407292Y-21643869D01*
G37*
G36*
X13753670Y-21578500D02*
X13760868Y-21579209D01*
X13769947Y-21581963D01*
X13777852Y-21584361D01*
X13791714Y-21591770D01*
X13793504Y-21592727D01*
X13797078Y-21595660D01*
X13807224Y-21603987D01*
X13815279Y-21613802D01*
X13818483Y-21617706D01*
X13818483Y-21617706D01*
X13826849Y-21633359D01*
X13826849Y-21633359D01*
X13832001Y-21650343D01*
X13833741Y-21668005D01*
X13832001Y-21685668D01*
X13829216Y-21694851D01*
X13826849Y-21702652D01*
X13825216Y-21705708D01*
X13818483Y-21718304D01*
X13815550Y-21721878D01*
X13807224Y-21732024D01*
X13798541Y-21739149D01*
X13793504Y-21743283D01*
X13793504Y-21743283D01*
X13777852Y-21751650D01*
X13772190Y-21753367D01*
X13760868Y-21756802D01*
X13754249Y-21757453D01*
X13747631Y-21758105D01*
X13738779Y-21758105D01*
X13732161Y-21757453D01*
X13725542Y-21756802D01*
X13714220Y-21753367D01*
X13708558Y-21751650D01*
X13692906Y-21743283D01*
X13692906Y-21743283D01*
X13687869Y-21739149D01*
X13679187Y-21732024D01*
X13670860Y-21721878D01*
X13667927Y-21718304D01*
X13661195Y-21705708D01*
X13659561Y-21702652D01*
X13657194Y-21694851D01*
X13654409Y-21685668D01*
X13652669Y-21668005D01*
X13654409Y-21650343D01*
X13659561Y-21633359D01*
X13659561Y-21633359D01*
X13667927Y-21617706D01*
X13667927Y-21617706D01*
X13671132Y-21613802D01*
X13679187Y-21603987D01*
X13689332Y-21595660D01*
X13692906Y-21592727D01*
X13694696Y-21591770D01*
X13708558Y-21584361D01*
X13716463Y-21581963D01*
X13725542Y-21579209D01*
X13732740Y-21578500D01*
X13738779Y-21577905D01*
X13747631Y-21577905D01*
X13753670Y-21578500D01*
X13753670Y-21578500D01*
G37*
G36*
X21994802Y-21511536D02*
X21994802Y-21511536D01*
X21994802Y-21511536D01*
X22009652Y-21517687D01*
X22023017Y-21526617D01*
X22034383Y-21537983D01*
X22043313Y-21551348D01*
X22048409Y-21563650D01*
X22049464Y-21566198D01*
X22052600Y-21581963D01*
X22052600Y-21598037D01*
X22049464Y-21613802D01*
X22049464Y-21613802D01*
X22043313Y-21628652D01*
X22034383Y-21642017D01*
X22023017Y-21653383D01*
X22009652Y-21662313D01*
X21997350Y-21667409D01*
X21994802Y-21668464D01*
X21979037Y-21671600D01*
X21962963Y-21671600D01*
X21947198Y-21668464D01*
X21944650Y-21667409D01*
X21932348Y-21662313D01*
X21918983Y-21653383D01*
X21907617Y-21642017D01*
X21898687Y-21628652D01*
X21892536Y-21613802D01*
X21892536Y-21613802D01*
X21889400Y-21598037D01*
X21889400Y-21581963D01*
X21892536Y-21566198D01*
X21893591Y-21563650D01*
X21898687Y-21551348D01*
X21907617Y-21537983D01*
X21918983Y-21526617D01*
X21932348Y-21517687D01*
X21947198Y-21511536D01*
X21947198Y-21511536D01*
X21947198Y-21511536D01*
X21962963Y-21508400D01*
X21979037Y-21508400D01*
X21994802Y-21511536D01*
X21994802Y-21511536D01*
G37*
G36*
X21740802Y-21511536D02*
X21740802Y-21511536D01*
X21740802Y-21511536D01*
X21755652Y-21517687D01*
X21769017Y-21526617D01*
X21780383Y-21537983D01*
X21789313Y-21551348D01*
X21794409Y-21563650D01*
X21795464Y-21566198D01*
X21798600Y-21581963D01*
X21798600Y-21598037D01*
X21795464Y-21613802D01*
X21795464Y-21613802D01*
X21789313Y-21628652D01*
X21780383Y-21642017D01*
X21769017Y-21653383D01*
X21755652Y-21662313D01*
X21743350Y-21667409D01*
X21740802Y-21668464D01*
X21725037Y-21671600D01*
X21708963Y-21671600D01*
X21693198Y-21668464D01*
X21690650Y-21667409D01*
X21678348Y-21662313D01*
X21664983Y-21653383D01*
X21653617Y-21642017D01*
X21644687Y-21628652D01*
X21638536Y-21613802D01*
X21638536Y-21613802D01*
X21635400Y-21598037D01*
X21635400Y-21581963D01*
X21638536Y-21566198D01*
X21639591Y-21563650D01*
X21644687Y-21551348D01*
X21653617Y-21537983D01*
X21664983Y-21526617D01*
X21678348Y-21517687D01*
X21693198Y-21511536D01*
X21693198Y-21511536D01*
X21693198Y-21511536D01*
X21708963Y-21508400D01*
X21725037Y-21508400D01*
X21740802Y-21511536D01*
X21740802Y-21511536D01*
G37*
G36*
X21232802Y-21511536D02*
X21232802Y-21511536D01*
X21232802Y-21511536D01*
X21247652Y-21517687D01*
X21261017Y-21526617D01*
X21272383Y-21537983D01*
X21281313Y-21551348D01*
X21286409Y-21563650D01*
X21287464Y-21566198D01*
X21290600Y-21581963D01*
X21290600Y-21598037D01*
X21287464Y-21613802D01*
X21287464Y-21613802D01*
X21281313Y-21628652D01*
X21272383Y-21642017D01*
X21261017Y-21653383D01*
X21247652Y-21662313D01*
X21235350Y-21667409D01*
X21232802Y-21668464D01*
X21217037Y-21671600D01*
X21200963Y-21671600D01*
X21185198Y-21668464D01*
X21182650Y-21667409D01*
X21170348Y-21662313D01*
X21156983Y-21653383D01*
X21145617Y-21642017D01*
X21136687Y-21628652D01*
X21130536Y-21613802D01*
X21130536Y-21613802D01*
X21127400Y-21598037D01*
X21127400Y-21581963D01*
X21130536Y-21566198D01*
X21131591Y-21563650D01*
X21136687Y-21551348D01*
X21145617Y-21537983D01*
X21156983Y-21526617D01*
X21170348Y-21517687D01*
X21185198Y-21511536D01*
X21185198Y-21511536D01*
X21185198Y-21511536D01*
X21200963Y-21508400D01*
X21217037Y-21508400D01*
X21232802Y-21511536D01*
X21232802Y-21511536D01*
G37*
G36*
X21486802Y-21511536D02*
X21486802Y-21511536D01*
X21486802Y-21511536D01*
X21501652Y-21517687D01*
X21515017Y-21526617D01*
X21526383Y-21537983D01*
X21535313Y-21551348D01*
X21540409Y-21563650D01*
X21541464Y-21566198D01*
X21544600Y-21581963D01*
X21544600Y-21598037D01*
X21541464Y-21613802D01*
X21541464Y-21613802D01*
X21535313Y-21628652D01*
X21526383Y-21642017D01*
X21515017Y-21653383D01*
X21501652Y-21662313D01*
X21489350Y-21667409D01*
X21486802Y-21668464D01*
X21471037Y-21671600D01*
X21454963Y-21671600D01*
X21439198Y-21668464D01*
X21436650Y-21667409D01*
X21424348Y-21662313D01*
X21410983Y-21653383D01*
X21399617Y-21642017D01*
X21390687Y-21628652D01*
X21384536Y-21613802D01*
X21384536Y-21613802D01*
X21381400Y-21598037D01*
X21381400Y-21581963D01*
X21384536Y-21566198D01*
X21385591Y-21563650D01*
X21390687Y-21551348D01*
X21399617Y-21537983D01*
X21410983Y-21526617D01*
X21424348Y-21517687D01*
X21439198Y-21511536D01*
X21439198Y-21511536D01*
X21439198Y-21511536D01*
X21454963Y-21508400D01*
X21471037Y-21508400D01*
X21486802Y-21511536D01*
X21486802Y-21511536D01*
G37*
G36*
X29586896Y-21464264D02*
X29594093Y-21464973D01*
X29605416Y-21468408D01*
X29611077Y-21470125D01*
X29624939Y-21477535D01*
X29626730Y-21478492D01*
X29630304Y-21481425D01*
X29640449Y-21489751D01*
X29648775Y-21499896D01*
X29651708Y-21503470D01*
X29651709Y-21503470D01*
X29660075Y-21519123D01*
X29660075Y-21519123D01*
X29665227Y-21536107D01*
X29666967Y-21553769D01*
X29665227Y-21571432D01*
X29663478Y-21577196D01*
X29660075Y-21588416D01*
X29654932Y-21598037D01*
X29651708Y-21604068D01*
X29648775Y-21607642D01*
X29640449Y-21617788D01*
X29630304Y-21626114D01*
X29626730Y-21629047D01*
X29626730Y-21629047D01*
X29611077Y-21637414D01*
X29605416Y-21639131D01*
X29594093Y-21642566D01*
X29587475Y-21643218D01*
X29580857Y-21643869D01*
X29572005Y-21643869D01*
X29565386Y-21643218D01*
X29558768Y-21642566D01*
X29547445Y-21639131D01*
X29541784Y-21637414D01*
X29526132Y-21629047D01*
X29526132Y-21629047D01*
X29522558Y-21626114D01*
X29512412Y-21617788D01*
X29504086Y-21607642D01*
X29501153Y-21604068D01*
X29497929Y-21598037D01*
X29492786Y-21588416D01*
X29489383Y-21577196D01*
X29487634Y-21571432D01*
X29485895Y-21553769D01*
X29487634Y-21536107D01*
X29492786Y-21519123D01*
X29492786Y-21519123D01*
X29501153Y-21503470D01*
X29501153Y-21503470D01*
X29504086Y-21499896D01*
X29512412Y-21489751D01*
X29522558Y-21481425D01*
X29526132Y-21478492D01*
X29527922Y-21477535D01*
X29541784Y-21470125D01*
X29547445Y-21468408D01*
X29558768Y-21464973D01*
X29565966Y-21464264D01*
X29572005Y-21463669D01*
X29580857Y-21463669D01*
X29586896Y-21464264D01*
X29586896Y-21464264D01*
G37*
G36*
X13574066Y-21398895D02*
X13581263Y-21399604D01*
X13592585Y-21403038D01*
X13598247Y-21404756D01*
X13605833Y-21408811D01*
X13613899Y-21413122D01*
X13617473Y-21416055D01*
X13627619Y-21424381D01*
X13635945Y-21434527D01*
X13638878Y-21438101D01*
X13638878Y-21438101D01*
X13647244Y-21453753D01*
X13647244Y-21453753D01*
X13652396Y-21470737D01*
X13654136Y-21488400D01*
X13652396Y-21506063D01*
X13650736Y-21511536D01*
X13647244Y-21523047D01*
X13640263Y-21536107D01*
X13638878Y-21538699D01*
X13636271Y-21541876D01*
X13627619Y-21552419D01*
X13617473Y-21560745D01*
X13613899Y-21563678D01*
X13613899Y-21563678D01*
X13598247Y-21572044D01*
X13592585Y-21573762D01*
X13581263Y-21577196D01*
X13574644Y-21577848D01*
X13568026Y-21578500D01*
X13559174Y-21578500D01*
X13552556Y-21577848D01*
X13545937Y-21577196D01*
X13534615Y-21573762D01*
X13528953Y-21572044D01*
X13513301Y-21563678D01*
X13513301Y-21563678D01*
X13509727Y-21560745D01*
X13499581Y-21552419D01*
X13490929Y-21541876D01*
X13488322Y-21538699D01*
X13486936Y-21536107D01*
X13479956Y-21523047D01*
X13476464Y-21511536D01*
X13474804Y-21506063D01*
X13473064Y-21488400D01*
X13474804Y-21470737D01*
X13479956Y-21453753D01*
X13479956Y-21453753D01*
X13488322Y-21438101D01*
X13488322Y-21438101D01*
X13491255Y-21434527D01*
X13499581Y-21424381D01*
X13509727Y-21416055D01*
X13513301Y-21413122D01*
X13521367Y-21408811D01*
X13528953Y-21404756D01*
X13534615Y-21403038D01*
X13545937Y-21399604D01*
X13553134Y-21398895D01*
X13559174Y-21398300D01*
X13568026Y-21398300D01*
X13574066Y-21398895D01*
X13574066Y-21398895D01*
G37*
G36*
X29767080Y-21284716D02*
X29773699Y-21285368D01*
X29785021Y-21288803D01*
X29790683Y-21290520D01*
X29804545Y-21297929D01*
X29806335Y-21298886D01*
X29809909Y-21301819D01*
X29820054Y-21310146D01*
X29828381Y-21320291D01*
X29831314Y-21323865D01*
X29831314Y-21323865D01*
X29839680Y-21339517D01*
X29839680Y-21339518D01*
X29844832Y-21356501D01*
X29846572Y-21374164D01*
X29844832Y-21391827D01*
X29844646Y-21392439D01*
X29839680Y-21408811D01*
X29832271Y-21422673D01*
X29831314Y-21424463D01*
X29828381Y-21428037D01*
X29820054Y-21438183D01*
X29809909Y-21446509D01*
X29806335Y-21449442D01*
X29806335Y-21449442D01*
X29790683Y-21457808D01*
X29785021Y-21459526D01*
X29773699Y-21462960D01*
X29767080Y-21463612D01*
X29760462Y-21464264D01*
X29751610Y-21464264D01*
X29744992Y-21463612D01*
X29738373Y-21462960D01*
X29727051Y-21459526D01*
X29721389Y-21457808D01*
X29705737Y-21449442D01*
X29705737Y-21449442D01*
X29702163Y-21446509D01*
X29692017Y-21438183D01*
X29683691Y-21428037D01*
X29680758Y-21424463D01*
X29679801Y-21422673D01*
X29672392Y-21408811D01*
X29667425Y-21392439D01*
X29667240Y-21391827D01*
X29665500Y-21374164D01*
X29667240Y-21356501D01*
X29672392Y-21339518D01*
X29672392Y-21339517D01*
X29680758Y-21323865D01*
X29680758Y-21323865D01*
X29683691Y-21320291D01*
X29692017Y-21310146D01*
X29702163Y-21301819D01*
X29705737Y-21298886D01*
X29707527Y-21297929D01*
X29721389Y-21290520D01*
X29727051Y-21288803D01*
X29738373Y-21285368D01*
X29744992Y-21284716D01*
X29751610Y-21284064D01*
X29760462Y-21284064D01*
X29767080Y-21284716D01*
X29767080Y-21284716D01*
G37*
G36*
X13395039Y-21219347D02*
X13401658Y-21219999D01*
X13412980Y-21223433D01*
X13418642Y-21225151D01*
X13432504Y-21232560D01*
X13434294Y-21233517D01*
X13437868Y-21236450D01*
X13448013Y-21244776D01*
X13456340Y-21254922D01*
X13459273Y-21258496D01*
X13459273Y-21258496D01*
X13467639Y-21274148D01*
X13467639Y-21274148D01*
X13472791Y-21291132D01*
X13474531Y-21308795D01*
X13472791Y-21326458D01*
X13469356Y-21337780D01*
X13467639Y-21343442D01*
X13460658Y-21356501D01*
X13459273Y-21359094D01*
X13456340Y-21362668D01*
X13448013Y-21372814D01*
X13437868Y-21381140D01*
X13434294Y-21384073D01*
X13434294Y-21384073D01*
X13418642Y-21392439D01*
X13412980Y-21394157D01*
X13401658Y-21397591D01*
X13395039Y-21398243D01*
X13388421Y-21398895D01*
X13379569Y-21398895D01*
X13372951Y-21398243D01*
X13366332Y-21397591D01*
X13355010Y-21394157D01*
X13349348Y-21392439D01*
X13333696Y-21384073D01*
X13333696Y-21384073D01*
X13330122Y-21381140D01*
X13319976Y-21372814D01*
X13311650Y-21362668D01*
X13308717Y-21359094D01*
X13307331Y-21356501D01*
X13300351Y-21343442D01*
X13298633Y-21337780D01*
X13295199Y-21326458D01*
X13293459Y-21308795D01*
X13295199Y-21291132D01*
X13300351Y-21274148D01*
X13300351Y-21274148D01*
X13308717Y-21258496D01*
X13308717Y-21258496D01*
X13311650Y-21254922D01*
X13319976Y-21244776D01*
X13330122Y-21236450D01*
X13333696Y-21233517D01*
X13335486Y-21232560D01*
X13349348Y-21225151D01*
X13355010Y-21223433D01*
X13366332Y-21219999D01*
X13372951Y-21219347D01*
X13379569Y-21218695D01*
X13388421Y-21218695D01*
X13395039Y-21219347D01*
X13395039Y-21219347D01*
G37*
G36*
X13331810Y-21129190D02*
X13204390Y-21256611D01*
X13076969Y-21129190D01*
X13204390Y-21001769D01*
X13331810Y-21129190D01*
X13331810Y-21129190D01*
G37*
G36*
X13973100Y-17656100D02*
X13712900Y-17656100D01*
X13712900Y-17395900D01*
X13973100Y-17395900D01*
X13973100Y-17656100D01*
X13973100Y-17656100D01*
G37*
G36*
X13130948Y-17400900D02*
X13130949Y-17400900D01*
X13130949Y-17400900D01*
X13154625Y-17410707D01*
X13175934Y-17424945D01*
X13194055Y-17443066D01*
X13208293Y-17464375D01*
X13218100Y-17488052D01*
X13223100Y-17513186D01*
X13223100Y-17538814D01*
X13218100Y-17563949D01*
X13208293Y-17587626D01*
X13194055Y-17608934D01*
X13175934Y-17627055D01*
X13175934Y-17627055D01*
X13154625Y-17641293D01*
X13130949Y-17651100D01*
X13130949Y-17651100D01*
X13130948Y-17651100D01*
X13105814Y-17656100D01*
X13080186Y-17656100D01*
X13055051Y-17651100D01*
X13055051Y-17651100D01*
X13055051Y-17651100D01*
X13031374Y-17641293D01*
X13010066Y-17627055D01*
X13010066Y-17627055D01*
X12991945Y-17608934D01*
X12977707Y-17587626D01*
X12967900Y-17563949D01*
X12962900Y-17538814D01*
X12962900Y-17513186D01*
X12967900Y-17488052D01*
X12977707Y-17464375D01*
X12991945Y-17443066D01*
X13010066Y-17424945D01*
X13031374Y-17410707D01*
X13055051Y-17400900D01*
X13055051Y-17400900D01*
X13055051Y-17400900D01*
X13080186Y-17395900D01*
X13105814Y-17395900D01*
X13130948Y-17400900D01*
X13130948Y-17400900D01*
G37*
G36*
X13182073Y-16599323D02*
X13203020Y-16608000D01*
X13221872Y-16620596D01*
X13237904Y-16636628D01*
X13250500Y-16655480D01*
X13259177Y-16676427D01*
X13263600Y-16698663D01*
X13263600Y-16721336D01*
X13259177Y-16743573D01*
X13250500Y-16764520D01*
X13237904Y-16783372D01*
X13221872Y-16799404D01*
X13203020Y-16812000D01*
X13182073Y-16820677D01*
X13159836Y-16825100D01*
X13137163Y-16825100D01*
X13114927Y-16820677D01*
X13093980Y-16812000D01*
X13075128Y-16799404D01*
X13059096Y-16783372D01*
X13046500Y-16764520D01*
X13037823Y-16743573D01*
X13033400Y-16721336D01*
X13033400Y-16698663D01*
X13037823Y-16676427D01*
X13046500Y-16655480D01*
X13059096Y-16636628D01*
X13075128Y-16620596D01*
X13093980Y-16608000D01*
X13114927Y-16599323D01*
X13137163Y-16594900D01*
X13159836Y-16594900D01*
X13182073Y-16599323D01*
X13182073Y-16599323D01*
G37*
G36*
X13682073Y-16599323D02*
X13703020Y-16608000D01*
X13721872Y-16620596D01*
X13737904Y-16636628D01*
X13750500Y-16655480D01*
X13759177Y-16676427D01*
X13763600Y-16698663D01*
X13763600Y-16721336D01*
X13759177Y-16743573D01*
X13750500Y-16764520D01*
X13737904Y-16783372D01*
X13721872Y-16799404D01*
X13703020Y-16812000D01*
X13682073Y-16820677D01*
X13659836Y-16825100D01*
X13637163Y-16825100D01*
X13614927Y-16820677D01*
X13593980Y-16812000D01*
X13575128Y-16799404D01*
X13559096Y-16783372D01*
X13546500Y-16764520D01*
X13537823Y-16743573D01*
X13533400Y-16721336D01*
X13533400Y-16698663D01*
X13537823Y-16676427D01*
X13546500Y-16655480D01*
X13559096Y-16636628D01*
X13575128Y-16620596D01*
X13593980Y-16608000D01*
X13614927Y-16599323D01*
X13637163Y-16594900D01*
X13659836Y-16594900D01*
X13682073Y-16599323D01*
X13682073Y-16599323D01*
G37*
G36*
X31113344Y-16306252D02*
X31119963Y-16306904D01*
X31131285Y-16310338D01*
X31136947Y-16312056D01*
X31150809Y-16319465D01*
X31152599Y-16320422D01*
X31156173Y-16323355D01*
X31166319Y-16331681D01*
X31174645Y-16341827D01*
X31177578Y-16345401D01*
X31177578Y-16345401D01*
X31185944Y-16361053D01*
X31185944Y-16361053D01*
X31191096Y-16378037D01*
X31192836Y-16395700D01*
X31191096Y-16413363D01*
X31187662Y-16424685D01*
X31185944Y-16430347D01*
X31178535Y-16444209D01*
X31177578Y-16445999D01*
X31174645Y-16449573D01*
X31166319Y-16459719D01*
X31156173Y-16468045D01*
X31152599Y-16470978D01*
X31152599Y-16470978D01*
X31136947Y-16479344D01*
X31131285Y-16481062D01*
X31119963Y-16484496D01*
X31113344Y-16485148D01*
X31106726Y-16485800D01*
X31097874Y-16485800D01*
X31091256Y-16485148D01*
X31084637Y-16484496D01*
X31073315Y-16481062D01*
X31067653Y-16479344D01*
X31052001Y-16470978D01*
X31052001Y-16470978D01*
X31048427Y-16468045D01*
X31038281Y-16459719D01*
X31029955Y-16449573D01*
X31027022Y-16445999D01*
X31026065Y-16444209D01*
X31018656Y-16430347D01*
X31016938Y-16424685D01*
X31013504Y-16413363D01*
X31011764Y-16395700D01*
X31013504Y-16378037D01*
X31018656Y-16361053D01*
X31018656Y-16361053D01*
X31027022Y-16345401D01*
X31027022Y-16345401D01*
X31029955Y-16341827D01*
X31038281Y-16331681D01*
X31048427Y-16323355D01*
X31052001Y-16320422D01*
X31053791Y-16319465D01*
X31067653Y-16312056D01*
X31073315Y-16310338D01*
X31084637Y-16306904D01*
X31091256Y-16306252D01*
X31097874Y-16305600D01*
X31106726Y-16305600D01*
X31113344Y-16306252D01*
X31113344Y-16306252D01*
G37*
G36*
X31621344Y-16306252D02*
X31627963Y-16306904D01*
X31639285Y-16310338D01*
X31644947Y-16312056D01*
X31658809Y-16319465D01*
X31660599Y-16320422D01*
X31664173Y-16323355D01*
X31674319Y-16331681D01*
X31682645Y-16341827D01*
X31685578Y-16345401D01*
X31685578Y-16345401D01*
X31693944Y-16361053D01*
X31693944Y-16361053D01*
X31699096Y-16378037D01*
X31700836Y-16395700D01*
X31699096Y-16413363D01*
X31695662Y-16424685D01*
X31693944Y-16430347D01*
X31686535Y-16444209D01*
X31685578Y-16445999D01*
X31682645Y-16449573D01*
X31674319Y-16459719D01*
X31664173Y-16468045D01*
X31660599Y-16470978D01*
X31660599Y-16470978D01*
X31644947Y-16479344D01*
X31639285Y-16481062D01*
X31627963Y-16484496D01*
X31621344Y-16485148D01*
X31614726Y-16485800D01*
X31605874Y-16485800D01*
X31599256Y-16485148D01*
X31592637Y-16484496D01*
X31581315Y-16481062D01*
X31575653Y-16479344D01*
X31560001Y-16470978D01*
X31560001Y-16470978D01*
X31556427Y-16468045D01*
X31546281Y-16459719D01*
X31537955Y-16449573D01*
X31535022Y-16445999D01*
X31534065Y-16444209D01*
X31526656Y-16430347D01*
X31524938Y-16424685D01*
X31521504Y-16413363D01*
X31519764Y-16395700D01*
X31521504Y-16378037D01*
X31526656Y-16361053D01*
X31526656Y-16361053D01*
X31535022Y-16345401D01*
X31535022Y-16345401D01*
X31537955Y-16341827D01*
X31546281Y-16331681D01*
X31556427Y-16323355D01*
X31560001Y-16320422D01*
X31561791Y-16319465D01*
X31575653Y-16312056D01*
X31581315Y-16310338D01*
X31592637Y-16306904D01*
X31599256Y-16306252D01*
X31605874Y-16305600D01*
X31614726Y-16305600D01*
X31621344Y-16306252D01*
X31621344Y-16306252D01*
G37*
G36*
X30859344Y-16306252D02*
X30865963Y-16306904D01*
X30877285Y-16310338D01*
X30882947Y-16312056D01*
X30896809Y-16319465D01*
X30898599Y-16320422D01*
X30902173Y-16323355D01*
X30912319Y-16331681D01*
X30920645Y-16341827D01*
X30923578Y-16345401D01*
X30923578Y-16345401D01*
X30931944Y-16361053D01*
X30931944Y-16361053D01*
X30937096Y-16378037D01*
X30938836Y-16395700D01*
X30937096Y-16413363D01*
X30933662Y-16424685D01*
X30931944Y-16430347D01*
X30924535Y-16444209D01*
X30923578Y-16445999D01*
X30920645Y-16449573D01*
X30912319Y-16459719D01*
X30902173Y-16468045D01*
X30898599Y-16470978D01*
X30898599Y-16470978D01*
X30882947Y-16479344D01*
X30877285Y-16481062D01*
X30865963Y-16484496D01*
X30859344Y-16485148D01*
X30852726Y-16485800D01*
X30843874Y-16485800D01*
X30837256Y-16485148D01*
X30830637Y-16484496D01*
X30819315Y-16481062D01*
X30813653Y-16479344D01*
X30798001Y-16470978D01*
X30798001Y-16470978D01*
X30794427Y-16468045D01*
X30784281Y-16459719D01*
X30775955Y-16449573D01*
X30773022Y-16445999D01*
X30772065Y-16444209D01*
X30764656Y-16430347D01*
X30762938Y-16424685D01*
X30759504Y-16413363D01*
X30757764Y-16395700D01*
X30759504Y-16378037D01*
X30764656Y-16361053D01*
X30764656Y-16361053D01*
X30773022Y-16345401D01*
X30773022Y-16345401D01*
X30775955Y-16341827D01*
X30784281Y-16331681D01*
X30794427Y-16323355D01*
X30798001Y-16320422D01*
X30799791Y-16319465D01*
X30813653Y-16312056D01*
X30819315Y-16310338D01*
X30830637Y-16306904D01*
X30837256Y-16306252D01*
X30843874Y-16305600D01*
X30852726Y-16305600D01*
X30859344Y-16306252D01*
X30859344Y-16306252D01*
G37*
G36*
X30684400Y-16485800D02*
X30504200Y-16485800D01*
X30504200Y-16305600D01*
X30684400Y-16305600D01*
X30684400Y-16485800D01*
X30684400Y-16485800D01*
G37*
G36*
X31367344Y-16306252D02*
X31373963Y-16306904D01*
X31385285Y-16310338D01*
X31390947Y-16312056D01*
X31404809Y-16319465D01*
X31406599Y-16320422D01*
X31410173Y-16323355D01*
X31420319Y-16331681D01*
X31428645Y-16341827D01*
X31431578Y-16345401D01*
X31431578Y-16345401D01*
X31439944Y-16361053D01*
X31439944Y-16361053D01*
X31445096Y-16378037D01*
X31446836Y-16395700D01*
X31445096Y-16413363D01*
X31441662Y-16424685D01*
X31439944Y-16430347D01*
X31432535Y-16444209D01*
X31431578Y-16445999D01*
X31428645Y-16449573D01*
X31420319Y-16459719D01*
X31410173Y-16468045D01*
X31406599Y-16470978D01*
X31406599Y-16470978D01*
X31390947Y-16479344D01*
X31385285Y-16481062D01*
X31373963Y-16484496D01*
X31367344Y-16485148D01*
X31360726Y-16485800D01*
X31351874Y-16485800D01*
X31345256Y-16485148D01*
X31338637Y-16484496D01*
X31327315Y-16481062D01*
X31321653Y-16479344D01*
X31306001Y-16470978D01*
X31306001Y-16470978D01*
X31302427Y-16468045D01*
X31292281Y-16459719D01*
X31283955Y-16449573D01*
X31281022Y-16445999D01*
X31280065Y-16444209D01*
X31272656Y-16430347D01*
X31270938Y-16424685D01*
X31267504Y-16413363D01*
X31265764Y-16395700D01*
X31267504Y-16378037D01*
X31272656Y-16361053D01*
X31272656Y-16361053D01*
X31281022Y-16345401D01*
X31281022Y-16345401D01*
X31283955Y-16341827D01*
X31292281Y-16331681D01*
X31302427Y-16323355D01*
X31306001Y-16320422D01*
X31307791Y-16319465D01*
X31321653Y-16312056D01*
X31327315Y-16310338D01*
X31338637Y-16306904D01*
X31345256Y-16306252D01*
X31351874Y-16305600D01*
X31360726Y-16305600D01*
X31367344Y-16306252D01*
X31367344Y-16306252D01*
G37*
G36*
X31073100Y-15960100D02*
X30902900Y-15960100D01*
X30902900Y-15789900D01*
X31073100Y-15789900D01*
X31073100Y-15960100D01*
X31073100Y-15960100D01*
G37*
G36*
X30242682Y-15791131D02*
X30242682Y-15791131D01*
X30242682Y-15791131D01*
X30258724Y-15795997D01*
X30258724Y-15795998D01*
X30258724Y-15795998D01*
X30273508Y-15803899D01*
X30286466Y-15814534D01*
X30297100Y-15827492D01*
X30305002Y-15842276D01*
X30309869Y-15858318D01*
X30311512Y-15875000D01*
X30309869Y-15891682D01*
X30305002Y-15907724D01*
X30297100Y-15922508D01*
X30286466Y-15935466D01*
X30273508Y-15946100D01*
X30258724Y-15954002D01*
X30258724Y-15954002D01*
X30258724Y-15954002D01*
X30242682Y-15958869D01*
X30242682Y-15958869D01*
X30242682Y-15958869D01*
X30230180Y-15960100D01*
X30221820Y-15960100D01*
X30209318Y-15958869D01*
X30209318Y-15958869D01*
X30209317Y-15958869D01*
X30193276Y-15954002D01*
X30193276Y-15954002D01*
X30193276Y-15954002D01*
X30178492Y-15946100D01*
X30165534Y-15935466D01*
X30154899Y-15922508D01*
X30146998Y-15907724D01*
X30142131Y-15891682D01*
X30140488Y-15875000D01*
X30142131Y-15858318D01*
X30146998Y-15842276D01*
X30154899Y-15827492D01*
X30165534Y-15814534D01*
X30178492Y-15803899D01*
X30193276Y-15795998D01*
X30193276Y-15795998D01*
X30193276Y-15795997D01*
X30209317Y-15791131D01*
X30209318Y-15791131D01*
X30209318Y-15791131D01*
X30221820Y-15789900D01*
X30230180Y-15789900D01*
X30242682Y-15791131D01*
X30242682Y-15791131D01*
G37*
G36*
X29446992Y-15094333D02*
X29457849Y-15097627D01*
X29467856Y-15102976D01*
X29476626Y-15110174D01*
X29483824Y-15118944D01*
X29489173Y-15128951D01*
X29492467Y-15139808D01*
X29493579Y-15151100D01*
X29492467Y-15162392D01*
X29489173Y-15173249D01*
X29489173Y-15173250D01*
X29483824Y-15183256D01*
X29476626Y-15192026D01*
X29467856Y-15199224D01*
X29459714Y-15203576D01*
X29457677Y-15204937D01*
X29455944Y-15206670D01*
X29454583Y-15208707D01*
X29453645Y-15210971D01*
X29453167Y-15213375D01*
X29453167Y-15215825D01*
X29453645Y-15218228D01*
X29454583Y-15220492D01*
X29455944Y-15222530D01*
X29457677Y-15224263D01*
X29459714Y-15225624D01*
X29467856Y-15229976D01*
X29476626Y-15237174D01*
X29483824Y-15245944D01*
X29489173Y-15255951D01*
X29492467Y-15266808D01*
X29493579Y-15278100D01*
X29492467Y-15289392D01*
X29489173Y-15300249D01*
X29489173Y-15300250D01*
X29483824Y-15310256D01*
X29476626Y-15319026D01*
X29468936Y-15325337D01*
X29467204Y-15327070D01*
X29465842Y-15329108D01*
X29464905Y-15331371D01*
X29464427Y-15333775D01*
X29464427Y-15336225D01*
X29464905Y-15338629D01*
X29465842Y-15340892D01*
X29467204Y-15342930D01*
X29468936Y-15344663D01*
X29470974Y-15346024D01*
X29473238Y-15346962D01*
X29476866Y-15347500D01*
X29493300Y-15347500D01*
X29493300Y-15462700D01*
X29333100Y-15462700D01*
X29333100Y-15347500D01*
X29349534Y-15347500D01*
X29351972Y-15347260D01*
X29354317Y-15346548D01*
X29356478Y-15345393D01*
X29358372Y-15343839D01*
X29359927Y-15341945D01*
X29361082Y-15339783D01*
X29361793Y-15337439D01*
X29362034Y-15335000D01*
X29361793Y-15332561D01*
X29361082Y-15330216D01*
X29359927Y-15328055D01*
X29357463Y-15325337D01*
X29349774Y-15319026D01*
X29342576Y-15310256D01*
X29337227Y-15300250D01*
X29337227Y-15300249D01*
X29333933Y-15289392D01*
X29332821Y-15278100D01*
X29333933Y-15266808D01*
X29337227Y-15255951D01*
X29342576Y-15245944D01*
X29349774Y-15237174D01*
X29358544Y-15229976D01*
X29366686Y-15225624D01*
X29368723Y-15224263D01*
X29370456Y-15222530D01*
X29371817Y-15220492D01*
X29372755Y-15218229D01*
X29373233Y-15215825D01*
X29373233Y-15213375D01*
X29372755Y-15210971D01*
X29371817Y-15208708D01*
X29370456Y-15206670D01*
X29368723Y-15204937D01*
X29366686Y-15203576D01*
X29358544Y-15199224D01*
X29349774Y-15192026D01*
X29342576Y-15183256D01*
X29337227Y-15173250D01*
X29337227Y-15173249D01*
X29333933Y-15162392D01*
X29332821Y-15151100D01*
X29333933Y-15139808D01*
X29337227Y-15128951D01*
X29342576Y-15118944D01*
X29349774Y-15110174D01*
X29358544Y-15102976D01*
X29368551Y-15097627D01*
X29379408Y-15094333D01*
X29387870Y-15093500D01*
X29438530Y-15093500D01*
X29446992Y-15094333D01*
X29446992Y-15094333D01*
G37*
G36*
X29446992Y-14522833D02*
X29457849Y-14526127D01*
X29467856Y-14531476D01*
X29476626Y-14538674D01*
X29483824Y-14547444D01*
X29489173Y-14557451D01*
X29492467Y-14568308D01*
X29493579Y-14579600D01*
X29492467Y-14590892D01*
X29489173Y-14601749D01*
X29489173Y-14601750D01*
X29483824Y-14611756D01*
X29476626Y-14620526D01*
X29467856Y-14627724D01*
X29459714Y-14632076D01*
X29457677Y-14633437D01*
X29455944Y-14635170D01*
X29454583Y-14637207D01*
X29453645Y-14639471D01*
X29453167Y-14641875D01*
X29453167Y-14644325D01*
X29453645Y-14646728D01*
X29454583Y-14648992D01*
X29455944Y-14651030D01*
X29457677Y-14652763D01*
X29459714Y-14654124D01*
X29467856Y-14658476D01*
X29476626Y-14665674D01*
X29483824Y-14674444D01*
X29489173Y-14684451D01*
X29492467Y-14695308D01*
X29493579Y-14706600D01*
X29492467Y-14717892D01*
X29489173Y-14728749D01*
X29489173Y-14728750D01*
X29483824Y-14738756D01*
X29476626Y-14747526D01*
X29468936Y-14753837D01*
X29467204Y-14755570D01*
X29465842Y-14757608D01*
X29464905Y-14759871D01*
X29464427Y-14762275D01*
X29464427Y-14764725D01*
X29464905Y-14767129D01*
X29465842Y-14769392D01*
X29467204Y-14771430D01*
X29468936Y-14773163D01*
X29470974Y-14774524D01*
X29473238Y-14775462D01*
X29476866Y-14776000D01*
X29493300Y-14776000D01*
X29493300Y-14891200D01*
X29333100Y-14891200D01*
X29333100Y-14776000D01*
X29349534Y-14776000D01*
X29351972Y-14775760D01*
X29354317Y-14775048D01*
X29356478Y-14773893D01*
X29358372Y-14772339D01*
X29359927Y-14770445D01*
X29361082Y-14768283D01*
X29361793Y-14765939D01*
X29362034Y-14763500D01*
X29361793Y-14761061D01*
X29361082Y-14758716D01*
X29359927Y-14756555D01*
X29357463Y-14753837D01*
X29349774Y-14747526D01*
X29342576Y-14738756D01*
X29337227Y-14728750D01*
X29337227Y-14728749D01*
X29333933Y-14717892D01*
X29332821Y-14706600D01*
X29333933Y-14695308D01*
X29337227Y-14684451D01*
X29342576Y-14674444D01*
X29349774Y-14665674D01*
X29358544Y-14658476D01*
X29366686Y-14654124D01*
X29368723Y-14652763D01*
X29370456Y-14651030D01*
X29371817Y-14648992D01*
X29372755Y-14646729D01*
X29373233Y-14644325D01*
X29373233Y-14641875D01*
X29372755Y-14639471D01*
X29371817Y-14637208D01*
X29370456Y-14635170D01*
X29368723Y-14633437D01*
X29366686Y-14632076D01*
X29358544Y-14627724D01*
X29349774Y-14620526D01*
X29342576Y-14611756D01*
X29337227Y-14601750D01*
X29337227Y-14601749D01*
X29333933Y-14590892D01*
X29332821Y-14579600D01*
X29333933Y-14568308D01*
X29337227Y-14557451D01*
X29342576Y-14547444D01*
X29349774Y-14538674D01*
X29358544Y-14531476D01*
X29368551Y-14526127D01*
X29379408Y-14522833D01*
X29387870Y-14522000D01*
X29438530Y-14522000D01*
X29446992Y-14522833D01*
X29446992Y-14522833D01*
G37*
G36*
X29446992Y-13951333D02*
X29457849Y-13954627D01*
X29467856Y-13959976D01*
X29476626Y-13967174D01*
X29483824Y-13975944D01*
X29489173Y-13985951D01*
X29492467Y-13996808D01*
X29493579Y-14008100D01*
X29492467Y-14019392D01*
X29489173Y-14030249D01*
X29489173Y-14030250D01*
X29483824Y-14040256D01*
X29476626Y-14049026D01*
X29467856Y-14056224D01*
X29459714Y-14060576D01*
X29457677Y-14061937D01*
X29455944Y-14063670D01*
X29454583Y-14065707D01*
X29453645Y-14067971D01*
X29453167Y-14070375D01*
X29453167Y-14072825D01*
X29453645Y-14075228D01*
X29454583Y-14077492D01*
X29455944Y-14079530D01*
X29457677Y-14081263D01*
X29459714Y-14082624D01*
X29467856Y-14086976D01*
X29476626Y-14094174D01*
X29483824Y-14102944D01*
X29489173Y-14112951D01*
X29492467Y-14123808D01*
X29493579Y-14135100D01*
X29492467Y-14146392D01*
X29489173Y-14157249D01*
X29489173Y-14157250D01*
X29483824Y-14167256D01*
X29476626Y-14176026D01*
X29468936Y-14182337D01*
X29467204Y-14184070D01*
X29465842Y-14186108D01*
X29464905Y-14188371D01*
X29464427Y-14190775D01*
X29464427Y-14193225D01*
X29464905Y-14195629D01*
X29465842Y-14197892D01*
X29467204Y-14199930D01*
X29468936Y-14201663D01*
X29470974Y-14203024D01*
X29473238Y-14203962D01*
X29476866Y-14204500D01*
X29493300Y-14204500D01*
X29493300Y-14319700D01*
X29333100Y-14319700D01*
X29333100Y-14204500D01*
X29349534Y-14204500D01*
X29351972Y-14204260D01*
X29354317Y-14203548D01*
X29356478Y-14202393D01*
X29358372Y-14200839D01*
X29359927Y-14198945D01*
X29361082Y-14196783D01*
X29361793Y-14194439D01*
X29362034Y-14192000D01*
X29361793Y-14189561D01*
X29361082Y-14187216D01*
X29359927Y-14185055D01*
X29357463Y-14182337D01*
X29349774Y-14176026D01*
X29342576Y-14167256D01*
X29337227Y-14157250D01*
X29337227Y-14157249D01*
X29333933Y-14146392D01*
X29332821Y-14135100D01*
X29333933Y-14123808D01*
X29337227Y-14112951D01*
X29342576Y-14102944D01*
X29349774Y-14094174D01*
X29358544Y-14086976D01*
X29366686Y-14082624D01*
X29368723Y-14081263D01*
X29370456Y-14079530D01*
X29371817Y-14077492D01*
X29372755Y-14075229D01*
X29373233Y-14072825D01*
X29373233Y-14070375D01*
X29372755Y-14067971D01*
X29371817Y-14065708D01*
X29370456Y-14063670D01*
X29368723Y-14061937D01*
X29366686Y-14060576D01*
X29358544Y-14056224D01*
X29349774Y-14049026D01*
X29342576Y-14040256D01*
X29337227Y-14030250D01*
X29337227Y-14030249D01*
X29333933Y-14019392D01*
X29332821Y-14008100D01*
X29333933Y-13996808D01*
X29337227Y-13985951D01*
X29342576Y-13975944D01*
X29349774Y-13967174D01*
X29358544Y-13959976D01*
X29368551Y-13954627D01*
X29379408Y-13951333D01*
X29387870Y-13950500D01*
X29438530Y-13950500D01*
X29446992Y-13951333D01*
X29446992Y-13951333D01*
G37*
G36*
X14202073Y-13659323D02*
X14223020Y-13668000D01*
X14241872Y-13680596D01*
X14257904Y-13696628D01*
X14270500Y-13715480D01*
X14279177Y-13736427D01*
X14283600Y-13758663D01*
X14283600Y-13781336D01*
X14279177Y-13803573D01*
X14270500Y-13824520D01*
X14257904Y-13843372D01*
X14241872Y-13859404D01*
X14223020Y-13872000D01*
X14202073Y-13880677D01*
X14179836Y-13885100D01*
X14157163Y-13885100D01*
X14134927Y-13880677D01*
X14113980Y-13872000D01*
X14095128Y-13859404D01*
X14079096Y-13843372D01*
X14066500Y-13824520D01*
X14057823Y-13803573D01*
X14053400Y-13781336D01*
X14053400Y-13758663D01*
X14057823Y-13736427D01*
X14066500Y-13715480D01*
X14079096Y-13696628D01*
X14095128Y-13680596D01*
X14113980Y-13668000D01*
X14134927Y-13659323D01*
X14157163Y-13654900D01*
X14179836Y-13654900D01*
X14202073Y-13659323D01*
X14202073Y-13659323D01*
G37*
G36*
X12662073Y-13659323D02*
X12683020Y-13668000D01*
X12701872Y-13680596D01*
X12717904Y-13696628D01*
X12730500Y-13715480D01*
X12739177Y-13736427D01*
X12743600Y-13758663D01*
X12743600Y-13781336D01*
X12739177Y-13803573D01*
X12730500Y-13824520D01*
X12717904Y-13843372D01*
X12701872Y-13859404D01*
X12683020Y-13872000D01*
X12662073Y-13880677D01*
X12639836Y-13885100D01*
X12617163Y-13885100D01*
X12594927Y-13880677D01*
X12573980Y-13872000D01*
X12555128Y-13859404D01*
X12539096Y-13843372D01*
X12526500Y-13824520D01*
X12517823Y-13803573D01*
X12513400Y-13781336D01*
X12513400Y-13758663D01*
X12517823Y-13736427D01*
X12526500Y-13715480D01*
X12539096Y-13696628D01*
X12555128Y-13680596D01*
X12573980Y-13668000D01*
X12594927Y-13659323D01*
X12617163Y-13654900D01*
X12639836Y-13654900D01*
X12662073Y-13659323D01*
X12662073Y-13659323D01*
G37*
G36*
X11646533Y-13507821D02*
X11679309Y-13521397D01*
X11708807Y-13541107D01*
X11733893Y-13566193D01*
X11753603Y-13595691D01*
X11767179Y-13628467D01*
X11774100Y-13663262D01*
X11774100Y-13698738D01*
X11767179Y-13733533D01*
X11753603Y-13766309D01*
X11733893Y-13795807D01*
X11708807Y-13820893D01*
X11679309Y-13840603D01*
X11646533Y-13854179D01*
X11611738Y-13861100D01*
X11576262Y-13861100D01*
X11541467Y-13854179D01*
X11508691Y-13840603D01*
X11479193Y-13820893D01*
X11454107Y-13795807D01*
X11434397Y-13766309D01*
X11420821Y-13733533D01*
X11413900Y-13698738D01*
X11413900Y-13663262D01*
X11420821Y-13628467D01*
X11434397Y-13595691D01*
X11454107Y-13566193D01*
X11479193Y-13541107D01*
X11508691Y-13521397D01*
X11541467Y-13507821D01*
X11576262Y-13500900D01*
X11611738Y-13500900D01*
X11646533Y-13507821D01*
X11646533Y-13507821D01*
G37*
G36*
X29446992Y-13379833D02*
X29457849Y-13383127D01*
X29467856Y-13388476D01*
X29476626Y-13395674D01*
X29483824Y-13404444D01*
X29489173Y-13414451D01*
X29492467Y-13425308D01*
X29493579Y-13436600D01*
X29492467Y-13447892D01*
X29489173Y-13458749D01*
X29489173Y-13458750D01*
X29483824Y-13468756D01*
X29476626Y-13477526D01*
X29467856Y-13484724D01*
X29459714Y-13489076D01*
X29457677Y-13490437D01*
X29455944Y-13492170D01*
X29454583Y-13494207D01*
X29453645Y-13496471D01*
X29453167Y-13498875D01*
X29453167Y-13501325D01*
X29453645Y-13503728D01*
X29454583Y-13505992D01*
X29455944Y-13508030D01*
X29457677Y-13509763D01*
X29459714Y-13511124D01*
X29467856Y-13515476D01*
X29476626Y-13522674D01*
X29483824Y-13531444D01*
X29489173Y-13541451D01*
X29492467Y-13552308D01*
X29493579Y-13563600D01*
X29492467Y-13574892D01*
X29489173Y-13585749D01*
X29489173Y-13585750D01*
X29483824Y-13595756D01*
X29476626Y-13604526D01*
X29468936Y-13610837D01*
X29467204Y-13612570D01*
X29465842Y-13614608D01*
X29464905Y-13616871D01*
X29464427Y-13619275D01*
X29464427Y-13621725D01*
X29464905Y-13624129D01*
X29465842Y-13626392D01*
X29467204Y-13628430D01*
X29468936Y-13630163D01*
X29470974Y-13631524D01*
X29473238Y-13632462D01*
X29476866Y-13633000D01*
X29493300Y-13633000D01*
X29493300Y-13748200D01*
X29333100Y-13748200D01*
X29333100Y-13633000D01*
X29349534Y-13633000D01*
X29351972Y-13632760D01*
X29354317Y-13632048D01*
X29356478Y-13630893D01*
X29358372Y-13629339D01*
X29359927Y-13627445D01*
X29361082Y-13625283D01*
X29361793Y-13622939D01*
X29362034Y-13620500D01*
X29361793Y-13618061D01*
X29361082Y-13615716D01*
X29359927Y-13613555D01*
X29357463Y-13610837D01*
X29349774Y-13604526D01*
X29342576Y-13595756D01*
X29337227Y-13585750D01*
X29337227Y-13585749D01*
X29333933Y-13574892D01*
X29332821Y-13563600D01*
X29333933Y-13552308D01*
X29337227Y-13541451D01*
X29342576Y-13531444D01*
X29349774Y-13522674D01*
X29358544Y-13515476D01*
X29366686Y-13511124D01*
X29368723Y-13509763D01*
X29370456Y-13508030D01*
X29371817Y-13505992D01*
X29372755Y-13503729D01*
X29373233Y-13501325D01*
X29373233Y-13498875D01*
X29372755Y-13496471D01*
X29371817Y-13494208D01*
X29370456Y-13492170D01*
X29368723Y-13490437D01*
X29366686Y-13489076D01*
X29358544Y-13484724D01*
X29349774Y-13477526D01*
X29342576Y-13468756D01*
X29337227Y-13458750D01*
X29337227Y-13458749D01*
X29333933Y-13447892D01*
X29332821Y-13436600D01*
X29333933Y-13425308D01*
X29337227Y-13414451D01*
X29342576Y-13404444D01*
X29349774Y-13395674D01*
X29358544Y-13388476D01*
X29368551Y-13383127D01*
X29379408Y-13379833D01*
X29387870Y-13379000D01*
X29438530Y-13379000D01*
X29446992Y-13379833D01*
X29446992Y-13379833D01*
G37*
G36*
X32408456Y-13183139D02*
X32427583Y-13191061D01*
X32444798Y-13202564D01*
X32459436Y-13217202D01*
X32470938Y-13234417D01*
X32478861Y-13253543D01*
X32482900Y-13273848D01*
X32482900Y-13294552D01*
X32478861Y-13314856D01*
X32470938Y-13333983D01*
X32459436Y-13351198D01*
X32444798Y-13365836D01*
X32427583Y-13377338D01*
X32408456Y-13385261D01*
X32388152Y-13389300D01*
X32367448Y-13389300D01*
X32347143Y-13385261D01*
X32328017Y-13377338D01*
X32310802Y-13365836D01*
X32296164Y-13351198D01*
X32284661Y-13333983D01*
X32276739Y-13314856D01*
X32272700Y-13294552D01*
X32272700Y-13273848D01*
X32276739Y-13253543D01*
X32284661Y-13234417D01*
X32296164Y-13217202D01*
X32310802Y-13202564D01*
X32328017Y-13191061D01*
X32347143Y-13183139D01*
X32367448Y-13179100D01*
X32388152Y-13179100D01*
X32408456Y-13183139D01*
X32408456Y-13183139D01*
G37*
G36*
X31958456Y-13183139D02*
X31977583Y-13191061D01*
X31994798Y-13202564D01*
X32009436Y-13217202D01*
X32020938Y-13234417D01*
X32028861Y-13253543D01*
X32032900Y-13273848D01*
X32032900Y-13294552D01*
X32028861Y-13314856D01*
X32020938Y-13333983D01*
X32009436Y-13351198D01*
X31994798Y-13365836D01*
X31977583Y-13377338D01*
X31958456Y-13385261D01*
X31938152Y-13389300D01*
X31917448Y-13389300D01*
X31897143Y-13385261D01*
X31878017Y-13377338D01*
X31860802Y-13365836D01*
X31846164Y-13351198D01*
X31834661Y-13333983D01*
X31826739Y-13314856D01*
X31822700Y-13294552D01*
X31822700Y-13273848D01*
X31826739Y-13253543D01*
X31834661Y-13234417D01*
X31846164Y-13217202D01*
X31860802Y-13202564D01*
X31878017Y-13191061D01*
X31897143Y-13183139D01*
X31917448Y-13179100D01*
X31938152Y-13179100D01*
X31958456Y-13183139D01*
X31958456Y-13183139D01*
G37*
G36*
X14085100Y-13323100D02*
X13854900Y-13323100D01*
X13854900Y-13092900D01*
X14085100Y-13092900D01*
X14085100Y-13323100D01*
X14085100Y-13323100D01*
G37*
G36*
X12966418Y-13093566D02*
X12976563Y-13094565D01*
X12998260Y-13101147D01*
X12998260Y-13101147D01*
X12998260Y-13101147D01*
X13018256Y-13111835D01*
X13035782Y-13126218D01*
X13050165Y-13143744D01*
X13060853Y-13163739D01*
X13060853Y-13163740D01*
X13060853Y-13163740D01*
X13067435Y-13185436D01*
X13069657Y-13208000D01*
X13067435Y-13230563D01*
X13060853Y-13252260D01*
X13060853Y-13252260D01*
X13050165Y-13272256D01*
X13035782Y-13289782D01*
X13018256Y-13304165D01*
X12998260Y-13314853D01*
X12998260Y-13314853D01*
X12998260Y-13314853D01*
X12976563Y-13321435D01*
X12966418Y-13322434D01*
X12959654Y-13323100D01*
X12948345Y-13323100D01*
X12941582Y-13322434D01*
X12931436Y-13321435D01*
X12909740Y-13314853D01*
X12909740Y-13314853D01*
X12909739Y-13314853D01*
X12889744Y-13304165D01*
X12872218Y-13289782D01*
X12857835Y-13272256D01*
X12847147Y-13252260D01*
X12847147Y-13252260D01*
X12840565Y-13230563D01*
X12838343Y-13208000D01*
X12840565Y-13185436D01*
X12847147Y-13163740D01*
X12847147Y-13163740D01*
X12847147Y-13163739D01*
X12857835Y-13143744D01*
X12872218Y-13126218D01*
X12889744Y-13111835D01*
X12909739Y-13101147D01*
X12909740Y-13101147D01*
X12909740Y-13101147D01*
X12931436Y-13094565D01*
X12941582Y-13093566D01*
X12948345Y-13092900D01*
X12959654Y-13092900D01*
X12966418Y-13093566D01*
X12966418Y-13093566D01*
G37*
G36*
X11891281Y-13117362D02*
X11907678Y-13124154D01*
X11922435Y-13134015D01*
X11934985Y-13146565D01*
X11944846Y-13161322D01*
X11950852Y-13175822D01*
X11952007Y-13177982D01*
X11953561Y-13179877D01*
X11955455Y-13181431D01*
X11957616Y-13182586D01*
X11959961Y-13183298D01*
X11962400Y-13183538D01*
X11964839Y-13183298D01*
X11967183Y-13182586D01*
X11969345Y-13181431D01*
X11971239Y-13179877D01*
X11972793Y-13177982D01*
X11973948Y-13175821D01*
X11974660Y-13173476D01*
X11974900Y-13171038D01*
X11974900Y-13113900D01*
X12155100Y-13113900D01*
X12155100Y-13294100D01*
X11974900Y-13294100D01*
X11974900Y-13236962D01*
X11974660Y-13234524D01*
X11973948Y-13232179D01*
X11972793Y-13230018D01*
X11971239Y-13228123D01*
X11969345Y-13226569D01*
X11967183Y-13225414D01*
X11964839Y-13224702D01*
X11962400Y-13224462D01*
X11959961Y-13224702D01*
X11957616Y-13225414D01*
X11955455Y-13226569D01*
X11953561Y-13228123D01*
X11952007Y-13230018D01*
X11950852Y-13232178D01*
X11944846Y-13246678D01*
X11934985Y-13261435D01*
X11922435Y-13273985D01*
X11907678Y-13283846D01*
X11891281Y-13290638D01*
X11873874Y-13294100D01*
X11856126Y-13294100D01*
X11838719Y-13290638D01*
X11822322Y-13283846D01*
X11807565Y-13273985D01*
X11795015Y-13261435D01*
X11785154Y-13246678D01*
X11778362Y-13230281D01*
X11774900Y-13212874D01*
X11774900Y-13195126D01*
X11778362Y-13177719D01*
X11785154Y-13161322D01*
X11795015Y-13146565D01*
X11807565Y-13134015D01*
X11822322Y-13124154D01*
X11838719Y-13117362D01*
X11856126Y-13113900D01*
X11873874Y-13113900D01*
X11891281Y-13117362D01*
X11891281Y-13117362D01*
G37*
G36*
X11891281Y-12867362D02*
X11907678Y-12874154D01*
X11922435Y-12884015D01*
X11934985Y-12896565D01*
X11944846Y-12911322D01*
X11951638Y-12927719D01*
X11952740Y-12933263D01*
X11953451Y-12935607D01*
X11954607Y-12937768D01*
X11956161Y-12939663D01*
X11958055Y-12941217D01*
X11960216Y-12942372D01*
X11962561Y-12943084D01*
X11965000Y-12943324D01*
X11967439Y-12943084D01*
X11969784Y-12942372D01*
X11971945Y-12941217D01*
X11973839Y-12939663D01*
X11975393Y-12937768D01*
X11976548Y-12935607D01*
X11977260Y-12933263D01*
X11978362Y-12927719D01*
X11985154Y-12911322D01*
X11995015Y-12896565D01*
X12007565Y-12884015D01*
X12022322Y-12874154D01*
X12038719Y-12867362D01*
X12056126Y-12863900D01*
X12073874Y-12863900D01*
X12091281Y-12867362D01*
X12107678Y-12874154D01*
X12122435Y-12884015D01*
X12134985Y-12896565D01*
X12144846Y-12911322D01*
X12151638Y-12927719D01*
X12155100Y-12945126D01*
X12155100Y-12962874D01*
X12151638Y-12980281D01*
X12144846Y-12996678D01*
X12134985Y-13011435D01*
X12122435Y-13023985D01*
X12107678Y-13033846D01*
X12091281Y-13040638D01*
X12073874Y-13044100D01*
X12056126Y-13044100D01*
X12038719Y-13040638D01*
X12022322Y-13033846D01*
X12007565Y-13023985D01*
X11995015Y-13011435D01*
X11985154Y-12996678D01*
X11978362Y-12980281D01*
X11977260Y-12974737D01*
X11976548Y-12972393D01*
X11975393Y-12970231D01*
X11973839Y-12968337D01*
X11971945Y-12966783D01*
X11969783Y-12965628D01*
X11967439Y-12964916D01*
X11965000Y-12964676D01*
X11962561Y-12964916D01*
X11960216Y-12965628D01*
X11958055Y-12966783D01*
X11956161Y-12968337D01*
X11954607Y-12970232D01*
X11953451Y-12972393D01*
X11952740Y-12974737D01*
X11951638Y-12980281D01*
X11944846Y-12996678D01*
X11934985Y-13011435D01*
X11922435Y-13023985D01*
X11907678Y-13033846D01*
X11891281Y-13040638D01*
X11873874Y-13044100D01*
X11856126Y-13044100D01*
X11838719Y-13040638D01*
X11822322Y-13033846D01*
X11807565Y-13023985D01*
X11795015Y-13011435D01*
X11785154Y-12996678D01*
X11778362Y-12980281D01*
X11774900Y-12962874D01*
X11774900Y-12945126D01*
X11778362Y-12927719D01*
X11785154Y-12911322D01*
X11795015Y-12896565D01*
X11807565Y-12884015D01*
X11822322Y-12874154D01*
X11838719Y-12867362D01*
X11856126Y-12863900D01*
X11873874Y-12863900D01*
X11891281Y-12867362D01*
X11891281Y-12867362D01*
G37*
G36*
X32408456Y-12533139D02*
X32427583Y-12541061D01*
X32444798Y-12552564D01*
X32459436Y-12567202D01*
X32470938Y-12584417D01*
X32478861Y-12603543D01*
X32482900Y-12623848D01*
X32482900Y-12644552D01*
X32478861Y-12664856D01*
X32470938Y-12683983D01*
X32459436Y-12701198D01*
X32444798Y-12715836D01*
X32427583Y-12727338D01*
X32408456Y-12735261D01*
X32388152Y-12739300D01*
X32367448Y-12739300D01*
X32347143Y-12735261D01*
X32328017Y-12727338D01*
X32310802Y-12715836D01*
X32296164Y-12701198D01*
X32284661Y-12683983D01*
X32276739Y-12664856D01*
X32272700Y-12644552D01*
X32272700Y-12623848D01*
X32276739Y-12603543D01*
X32284661Y-12584417D01*
X32296164Y-12567202D01*
X32310802Y-12552564D01*
X32328017Y-12541061D01*
X32347143Y-12533139D01*
X32367448Y-12529100D01*
X32388152Y-12529100D01*
X32408456Y-12533139D01*
X32408456Y-12533139D01*
G37*
G36*
X31958456Y-12533139D02*
X31977583Y-12541061D01*
X31994798Y-12552564D01*
X32009436Y-12567202D01*
X32020938Y-12584417D01*
X32028861Y-12603543D01*
X32032900Y-12623848D01*
X32032900Y-12644552D01*
X32028861Y-12664856D01*
X32020938Y-12683983D01*
X32009436Y-12701198D01*
X31994798Y-12715836D01*
X31977583Y-12727338D01*
X31958456Y-12735261D01*
X31938152Y-12739300D01*
X31917448Y-12739300D01*
X31897143Y-12735261D01*
X31878017Y-12727338D01*
X31860802Y-12715836D01*
X31846164Y-12701198D01*
X31834661Y-12683983D01*
X31826739Y-12664856D01*
X31822700Y-12644552D01*
X31822700Y-12623848D01*
X31826739Y-12603543D01*
X31834661Y-12584417D01*
X31846164Y-12567202D01*
X31860802Y-12552564D01*
X31878017Y-12541061D01*
X31897143Y-12533139D01*
X31917448Y-12529100D01*
X31938152Y-12529100D01*
X31958456Y-12533139D01*
X31958456Y-12533139D01*
G37*
G36*
X11646533Y-12303821D02*
X11679309Y-12317397D01*
X11708807Y-12337107D01*
X11733893Y-12362193D01*
X11753603Y-12391691D01*
X11767179Y-12424467D01*
X11774100Y-12459262D01*
X11774100Y-12494738D01*
X11767179Y-12529533D01*
X11753603Y-12562309D01*
X11733893Y-12591807D01*
X11708807Y-12616893D01*
X11679309Y-12636603D01*
X11646533Y-12650179D01*
X11611738Y-12657100D01*
X11576262Y-12657100D01*
X11541467Y-12650179D01*
X11508691Y-12636603D01*
X11479193Y-12616893D01*
X11454107Y-12591807D01*
X11434397Y-12562309D01*
X11420821Y-12529533D01*
X11413900Y-12494738D01*
X11413900Y-12459262D01*
X11420821Y-12424467D01*
X11434397Y-12391691D01*
X11454107Y-12362193D01*
X11479193Y-12337107D01*
X11508691Y-12317397D01*
X11541467Y-12303821D01*
X11576262Y-12296900D01*
X11611738Y-12296900D01*
X11646533Y-12303821D01*
X11646533Y-12303821D01*
G37*
G36*
X31049814Y-12164624D02*
X31064610Y-12170753D01*
X31077926Y-12179650D01*
X31089250Y-12190974D01*
X31098147Y-12204290D01*
X31104276Y-12219086D01*
X31107400Y-12234792D01*
X31107400Y-12250807D01*
X31104276Y-12266514D01*
X31098147Y-12281310D01*
X31089250Y-12294626D01*
X31077926Y-12305950D01*
X31064610Y-12314847D01*
X31049814Y-12320976D01*
X31034107Y-12324100D01*
X31018092Y-12324100D01*
X31002386Y-12320976D01*
X30987590Y-12314847D01*
X30974274Y-12305950D01*
X30962950Y-12294626D01*
X30954053Y-12281310D01*
X30947924Y-12266514D01*
X30944800Y-12250807D01*
X30944800Y-12234792D01*
X30947924Y-12219086D01*
X30954053Y-12204290D01*
X30962950Y-12190974D01*
X30974274Y-12179650D01*
X30987590Y-12170753D01*
X31002386Y-12164624D01*
X31018092Y-12161500D01*
X31034107Y-12161500D01*
X31049814Y-12164624D01*
X31049814Y-12164624D01*
G37*
G36*
X31303814Y-11910624D02*
X31318610Y-11916753D01*
X31331926Y-11925650D01*
X31343250Y-11936974D01*
X31352147Y-11950290D01*
X31358276Y-11965086D01*
X31361400Y-11980792D01*
X31361400Y-11996807D01*
X31358276Y-12012514D01*
X31352147Y-12027310D01*
X31343250Y-12040626D01*
X31331926Y-12051950D01*
X31318610Y-12060847D01*
X31303814Y-12066976D01*
X31288107Y-12070100D01*
X31272092Y-12070100D01*
X31256386Y-12066976D01*
X31241590Y-12060847D01*
X31228274Y-12051950D01*
X31216950Y-12040626D01*
X31208053Y-12027310D01*
X31201924Y-12012514D01*
X31198800Y-11996807D01*
X31198800Y-11980792D01*
X31201924Y-11965086D01*
X31208053Y-11950290D01*
X31216950Y-11936974D01*
X31228274Y-11925650D01*
X31241590Y-11916753D01*
X31256386Y-11910624D01*
X31272092Y-11907500D01*
X31288107Y-11907500D01*
X31303814Y-11910624D01*
X31303814Y-11910624D01*
G37*
G36*
X30795814Y-11910624D02*
X30810610Y-11916753D01*
X30823926Y-11925650D01*
X30835250Y-11936974D01*
X30844147Y-11950290D01*
X30850276Y-11965086D01*
X30853400Y-11980792D01*
X30853400Y-11996807D01*
X30850276Y-12012514D01*
X30844147Y-12027310D01*
X30835250Y-12040626D01*
X30823926Y-12051950D01*
X30810610Y-12060847D01*
X30795814Y-12066976D01*
X30780107Y-12070100D01*
X30764092Y-12070100D01*
X30748386Y-12066976D01*
X30733590Y-12060847D01*
X30720274Y-12051950D01*
X30708950Y-12040626D01*
X30700053Y-12027310D01*
X30693924Y-12012514D01*
X30690800Y-11996807D01*
X30690800Y-11980792D01*
X30693924Y-11965086D01*
X30700053Y-11950290D01*
X30708950Y-11936974D01*
X30720274Y-11925650D01*
X30733590Y-11916753D01*
X30748386Y-11910624D01*
X30764092Y-11907500D01*
X30780107Y-11907500D01*
X30795814Y-11910624D01*
X30795814Y-11910624D01*
G37*
G36*
X31049814Y-11656624D02*
X31064610Y-11662753D01*
X31077926Y-11671650D01*
X31089250Y-11682974D01*
X31098147Y-11696290D01*
X31104276Y-11711086D01*
X31107400Y-11726792D01*
X31107400Y-11742807D01*
X31104276Y-11758514D01*
X31098147Y-11773310D01*
X31089250Y-11786626D01*
X31077926Y-11797950D01*
X31064610Y-11806847D01*
X31049814Y-11812976D01*
X31034107Y-11816100D01*
X31018092Y-11816100D01*
X31002386Y-11812976D01*
X30987590Y-11806847D01*
X30974274Y-11797950D01*
X30962950Y-11786626D01*
X30954053Y-11773310D01*
X30947924Y-11758514D01*
X30944800Y-11742807D01*
X30944800Y-11726792D01*
X30947924Y-11711086D01*
X30954053Y-11696290D01*
X30962950Y-11682974D01*
X30974274Y-11671650D01*
X30987590Y-11662753D01*
X31002386Y-11656624D01*
X31018092Y-11653500D01*
X31034107Y-11653500D01*
X31049814Y-11656624D01*
X31049814Y-11656624D01*
G37*
G36*
X29950631Y-7344210D02*
X29823210Y-7471631D01*
X29695789Y-7344210D01*
X29823210Y-7216789D01*
X29950631Y-7344210D01*
X29950631Y-7344210D01*
G37*
G36*
X13307429Y-7276431D02*
X13314627Y-7277140D01*
X13325949Y-7280574D01*
X13331611Y-7282292D01*
X13345473Y-7289701D01*
X13347263Y-7290658D01*
X13350837Y-7293591D01*
X13360983Y-7301917D01*
X13369309Y-7312063D01*
X13372242Y-7315637D01*
X13372242Y-7315637D01*
X13380608Y-7331289D01*
X13380608Y-7331289D01*
X13385760Y-7348273D01*
X13387500Y-7365936D01*
X13385760Y-7383599D01*
X13382326Y-7394921D01*
X13380608Y-7400583D01*
X13373199Y-7414445D01*
X13372242Y-7416235D01*
X13369309Y-7419809D01*
X13360983Y-7429954D01*
X13350837Y-7438281D01*
X13347263Y-7441214D01*
X13347263Y-7441214D01*
X13331611Y-7449580D01*
X13325949Y-7451297D01*
X13314627Y-7454732D01*
X13308008Y-7455384D01*
X13301390Y-7456036D01*
X13292538Y-7456036D01*
X13285920Y-7455384D01*
X13279301Y-7454732D01*
X13267979Y-7451297D01*
X13262317Y-7449580D01*
X13246665Y-7441214D01*
X13246665Y-7441214D01*
X13243091Y-7438281D01*
X13232945Y-7429954D01*
X13224619Y-7419809D01*
X13221686Y-7416235D01*
X13220729Y-7414445D01*
X13213320Y-7400583D01*
X13211602Y-7394921D01*
X13208168Y-7383599D01*
X13206428Y-7365936D01*
X13208168Y-7348273D01*
X13213320Y-7331289D01*
X13213320Y-7331289D01*
X13221686Y-7315637D01*
X13221686Y-7315637D01*
X13224619Y-7312063D01*
X13232945Y-7301917D01*
X13243091Y-7293591D01*
X13246665Y-7290658D01*
X13248455Y-7289701D01*
X13262317Y-7282292D01*
X13267979Y-7280574D01*
X13279301Y-7277140D01*
X13286499Y-7276431D01*
X13292538Y-7275836D01*
X13301390Y-7275836D01*
X13307429Y-7276431D01*
X13307429Y-7276431D01*
G37*
G36*
X13487035Y-7096826D02*
X13494232Y-7097534D01*
X13504293Y-7100586D01*
X13511216Y-7102686D01*
X13525078Y-7110096D01*
X13526868Y-7111053D01*
X13530442Y-7113986D01*
X13540588Y-7122312D01*
X13546863Y-7129958D01*
X13551847Y-7136032D01*
X13551847Y-7136032D01*
X13560214Y-7151684D01*
X13560214Y-7151684D01*
X13565366Y-7168668D01*
X13567105Y-7186331D01*
X13565366Y-7203993D01*
X13561931Y-7215316D01*
X13560214Y-7220977D01*
X13556126Y-7228624D01*
X13551847Y-7236630D01*
X13549177Y-7239883D01*
X13540588Y-7250349D01*
X13530442Y-7258675D01*
X13526868Y-7261608D01*
X13526868Y-7261609D01*
X13511216Y-7269975D01*
X13505555Y-7271692D01*
X13494232Y-7275127D01*
X13487613Y-7275779D01*
X13480995Y-7276431D01*
X13472143Y-7276431D01*
X13465525Y-7275779D01*
X13458907Y-7275127D01*
X13447584Y-7271692D01*
X13441923Y-7269975D01*
X13426270Y-7261609D01*
X13426270Y-7261608D01*
X13422696Y-7258675D01*
X13412551Y-7250349D01*
X13403961Y-7239883D01*
X13401291Y-7236630D01*
X13397012Y-7228624D01*
X13392925Y-7220977D01*
X13391208Y-7215316D01*
X13387773Y-7203993D01*
X13386033Y-7186331D01*
X13387773Y-7168668D01*
X13392925Y-7151684D01*
X13392925Y-7151684D01*
X13401291Y-7136032D01*
X13401291Y-7136032D01*
X13406276Y-7129958D01*
X13412551Y-7122312D01*
X13422696Y-7113986D01*
X13426270Y-7111053D01*
X13428061Y-7110096D01*
X13441923Y-7102686D01*
X13448845Y-7100586D01*
X13458907Y-7097534D01*
X13466103Y-7096826D01*
X13472143Y-7096231D01*
X13480995Y-7096231D01*
X13487035Y-7096826D01*
X13487035Y-7096826D01*
G37*
G36*
X29654071Y-7075100D02*
X29661268Y-7075809D01*
X29672590Y-7079243D01*
X29678252Y-7080961D01*
X29692114Y-7088370D01*
X29693904Y-7089327D01*
X29695175Y-7090370D01*
X29707624Y-7100586D01*
X29714629Y-7109123D01*
X29718883Y-7114306D01*
X29718883Y-7114306D01*
X29727249Y-7129958D01*
X29727249Y-7129958D01*
X29732401Y-7146942D01*
X29734141Y-7164605D01*
X29732401Y-7182268D01*
X29731169Y-7186331D01*
X29727249Y-7199252D01*
X29724715Y-7203993D01*
X29718883Y-7214904D01*
X29717336Y-7216790D01*
X29707624Y-7228624D01*
X29697868Y-7236630D01*
X29693904Y-7239883D01*
X29693904Y-7239883D01*
X29678252Y-7248249D01*
X29672590Y-7249967D01*
X29661268Y-7253401D01*
X29654649Y-7254053D01*
X29648031Y-7254705D01*
X29639179Y-7254705D01*
X29632561Y-7254053D01*
X29625942Y-7253401D01*
X29614620Y-7249967D01*
X29608958Y-7248249D01*
X29593306Y-7239883D01*
X29593306Y-7239883D01*
X29589342Y-7236630D01*
X29579586Y-7228624D01*
X29569875Y-7216790D01*
X29568327Y-7214904D01*
X29562495Y-7203993D01*
X29559961Y-7199252D01*
X29556041Y-7186331D01*
X29554809Y-7182268D01*
X29553069Y-7164605D01*
X29554809Y-7146942D01*
X29559961Y-7129958D01*
X29559961Y-7129958D01*
X29568327Y-7114306D01*
X29568327Y-7114306D01*
X29572581Y-7109123D01*
X29579586Y-7100586D01*
X29592036Y-7090370D01*
X29593306Y-7089327D01*
X29595096Y-7088370D01*
X29608958Y-7080961D01*
X29614620Y-7079243D01*
X29625942Y-7075809D01*
X29633139Y-7075100D01*
X29639179Y-7074505D01*
X29648031Y-7074505D01*
X29654071Y-7075100D01*
X29654071Y-7075100D01*
G37*
G36*
X22322292Y-6801233D02*
X22333149Y-6804527D01*
X22343156Y-6809876D01*
X22351926Y-6817074D01*
X22359124Y-6825844D01*
X22364473Y-6835851D01*
X22367767Y-6846708D01*
X22368879Y-6858000D01*
X22367767Y-6869292D01*
X22364473Y-6880149D01*
X22364473Y-6880150D01*
X22359124Y-6890156D01*
X22351926Y-6898926D01*
X22343156Y-6906124D01*
X22335014Y-6910476D01*
X22332977Y-6911837D01*
X22331244Y-6913570D01*
X22329883Y-6915607D01*
X22328945Y-6917871D01*
X22328467Y-6920275D01*
X22328467Y-6922725D01*
X22328945Y-6925128D01*
X22329883Y-6927392D01*
X22331244Y-6929430D01*
X22332977Y-6931163D01*
X22335014Y-6932524D01*
X22343156Y-6936876D01*
X22351926Y-6944074D01*
X22359124Y-6952844D01*
X22364473Y-6962851D01*
X22367767Y-6973708D01*
X22368879Y-6985000D01*
X22367767Y-6996292D01*
X22364473Y-7007149D01*
X22364473Y-7007150D01*
X22359124Y-7017156D01*
X22351926Y-7025926D01*
X22344237Y-7032237D01*
X22342504Y-7033970D01*
X22341142Y-7036008D01*
X22340205Y-7038271D01*
X22339727Y-7040675D01*
X22339727Y-7043125D01*
X22340205Y-7045529D01*
X22341142Y-7047792D01*
X22342504Y-7049830D01*
X22344237Y-7051563D01*
X22346274Y-7052924D01*
X22348538Y-7053862D01*
X22352166Y-7054400D01*
X22368600Y-7054400D01*
X22368600Y-7169600D01*
X22208400Y-7169600D01*
X22208400Y-7054400D01*
X22224834Y-7054400D01*
X22227272Y-7054160D01*
X22229617Y-7053448D01*
X22231778Y-7052293D01*
X22233672Y-7050739D01*
X22235227Y-7048845D01*
X22236382Y-7046683D01*
X22237093Y-7044339D01*
X22237334Y-7041900D01*
X22237093Y-7039461D01*
X22236382Y-7037116D01*
X22235227Y-7034955D01*
X22232764Y-7032237D01*
X22225074Y-7025926D01*
X22217876Y-7017156D01*
X22212527Y-7007150D01*
X22212527Y-7007149D01*
X22209233Y-6996292D01*
X22208121Y-6985000D01*
X22209233Y-6973708D01*
X22212527Y-6962851D01*
X22217876Y-6952844D01*
X22225074Y-6944074D01*
X22233844Y-6936876D01*
X22241986Y-6932524D01*
X22244023Y-6931163D01*
X22245756Y-6929430D01*
X22247117Y-6927392D01*
X22248055Y-6925129D01*
X22248533Y-6922725D01*
X22248533Y-6920275D01*
X22248055Y-6917871D01*
X22247117Y-6915608D01*
X22245756Y-6913570D01*
X22244023Y-6911837D01*
X22241986Y-6910476D01*
X22233844Y-6906124D01*
X22225074Y-6898926D01*
X22217876Y-6890156D01*
X22212527Y-6880150D01*
X22212527Y-6880149D01*
X22209233Y-6869292D01*
X22208121Y-6858000D01*
X22209233Y-6846708D01*
X22212527Y-6835851D01*
X22217876Y-6825844D01*
X22225074Y-6817074D01*
X22233844Y-6809876D01*
X22243851Y-6804527D01*
X22254708Y-6801233D01*
X22263170Y-6800400D01*
X22313830Y-6800400D01*
X22322292Y-6801233D01*
X22322292Y-6801233D01*
G37*
G36*
X21617740Y-6957055D02*
X21635047Y-6964223D01*
X21650623Y-6974631D01*
X21663869Y-6987877D01*
X21674277Y-7003453D01*
X21681445Y-7020760D01*
X21685100Y-7039133D01*
X21685100Y-7057867D01*
X21681445Y-7076240D01*
X21674277Y-7093547D01*
X21663869Y-7109123D01*
X21650623Y-7122369D01*
X21635047Y-7132777D01*
X21617740Y-7139945D01*
X21599367Y-7143600D01*
X21580633Y-7143600D01*
X21562260Y-7139945D01*
X21544953Y-7132777D01*
X21529377Y-7122369D01*
X21516131Y-7109123D01*
X21505723Y-7093547D01*
X21498555Y-7076240D01*
X21494900Y-7057867D01*
X21494900Y-7039133D01*
X21498555Y-7020760D01*
X21505723Y-7003453D01*
X21516131Y-6987877D01*
X21529377Y-6974631D01*
X21544953Y-6964223D01*
X21562260Y-6957055D01*
X21580633Y-6953400D01*
X21599367Y-6953400D01*
X21617740Y-6957055D01*
X21617740Y-6957055D01*
G37*
G36*
X13666640Y-6917220D02*
X13673837Y-6917929D01*
X13683898Y-6920981D01*
X13690821Y-6923081D01*
X13702698Y-6929430D01*
X13706473Y-6931448D01*
X13706570Y-6931527D01*
X13720193Y-6942707D01*
X13726468Y-6950353D01*
X13731452Y-6956426D01*
X13731452Y-6956427D01*
X13739819Y-6972079D01*
X13740593Y-6974631D01*
X13744971Y-6989063D01*
X13746710Y-7006726D01*
X13744971Y-7024388D01*
X13741536Y-7035711D01*
X13739819Y-7041372D01*
X13734812Y-7050739D01*
X13731452Y-7057025D01*
X13728782Y-7060278D01*
X13720193Y-7070744D01*
X13713497Y-7076240D01*
X13706473Y-7082003D01*
X13706473Y-7082003D01*
X13690821Y-7090370D01*
X13685160Y-7092087D01*
X13673837Y-7095522D01*
X13667219Y-7096174D01*
X13660600Y-7096826D01*
X13651748Y-7096826D01*
X13645130Y-7096174D01*
X13638512Y-7095522D01*
X13627189Y-7092087D01*
X13621528Y-7090370D01*
X13605875Y-7082003D01*
X13605875Y-7082003D01*
X13598852Y-7076240D01*
X13592156Y-7070744D01*
X13583566Y-7060278D01*
X13580897Y-7057025D01*
X13577537Y-7050739D01*
X13572530Y-7041372D01*
X13570813Y-7035711D01*
X13567378Y-7024388D01*
X13565638Y-7006726D01*
X13567378Y-6989063D01*
X13571756Y-6974631D01*
X13572530Y-6972079D01*
X13580896Y-6956427D01*
X13580897Y-6956426D01*
X13585881Y-6950353D01*
X13592156Y-6942707D01*
X13605779Y-6931527D01*
X13605875Y-6931448D01*
X13609650Y-6929430D01*
X13621528Y-6923081D01*
X13628450Y-6920981D01*
X13638512Y-6917929D01*
X13645708Y-6917220D01*
X13651748Y-6916626D01*
X13660600Y-6916626D01*
X13666640Y-6917220D01*
X13666640Y-6917220D01*
G37*
G36*
X29474465Y-6895495D02*
X29481663Y-6896204D01*
X29492985Y-6899638D01*
X29498647Y-6901356D01*
X29512509Y-6908765D01*
X29514299Y-6909722D01*
X29517873Y-6912655D01*
X29528019Y-6920981D01*
X29534952Y-6929430D01*
X29539278Y-6934701D01*
X29539278Y-6934701D01*
X29547644Y-6950353D01*
X29547644Y-6950353D01*
X29552796Y-6967337D01*
X29554536Y-6985000D01*
X29552796Y-7002663D01*
X29549362Y-7013985D01*
X29547644Y-7019647D01*
X29547049Y-7020760D01*
X29539278Y-7035299D01*
X29538696Y-7036008D01*
X29528019Y-7049019D01*
X29521754Y-7054160D01*
X29514299Y-7060278D01*
X29514299Y-7060278D01*
X29498647Y-7068644D01*
X29492985Y-7070362D01*
X29481663Y-7073796D01*
X29475044Y-7074448D01*
X29468426Y-7075100D01*
X29459574Y-7075100D01*
X29452956Y-7074448D01*
X29446337Y-7073796D01*
X29435015Y-7070362D01*
X29429353Y-7068644D01*
X29413701Y-7060278D01*
X29413701Y-7060278D01*
X29406246Y-7054160D01*
X29399981Y-7049019D01*
X29389304Y-7036008D01*
X29388722Y-7035299D01*
X29380951Y-7020760D01*
X29380356Y-7019647D01*
X29378638Y-7013985D01*
X29375204Y-7002663D01*
X29373464Y-6985000D01*
X29375204Y-6967337D01*
X29380356Y-6950353D01*
X29380356Y-6950353D01*
X29388722Y-6934701D01*
X29388722Y-6934701D01*
X29393048Y-6929430D01*
X29399981Y-6920981D01*
X29410127Y-6912655D01*
X29413701Y-6909722D01*
X29415491Y-6908765D01*
X29429353Y-6901356D01*
X29435015Y-6899638D01*
X29446337Y-6896204D01*
X29453535Y-6895495D01*
X29459574Y-6894900D01*
X29468426Y-6894900D01*
X29474465Y-6895495D01*
X29474465Y-6895495D01*
G37*
G36*
X13846245Y-6737615D02*
X13853442Y-6738324D01*
X13863503Y-6741376D01*
X13870426Y-6743476D01*
X13884288Y-6750886D01*
X13886079Y-6751843D01*
X13889652Y-6754776D01*
X13899798Y-6763102D01*
X13908124Y-6773248D01*
X13911057Y-6776821D01*
X13911057Y-6776822D01*
X13919424Y-6792474D01*
X13919424Y-6792474D01*
X13924576Y-6809458D01*
X13926315Y-6827120D01*
X13924576Y-6844783D01*
X13921266Y-6855694D01*
X13919424Y-6861767D01*
X13912014Y-6875629D01*
X13911057Y-6877420D01*
X13908817Y-6880150D01*
X13899798Y-6891139D01*
X13890309Y-6898926D01*
X13886079Y-6902398D01*
X13886078Y-6902398D01*
X13870426Y-6910765D01*
X13866890Y-6911837D01*
X13853442Y-6915917D01*
X13846824Y-6916569D01*
X13840205Y-6917220D01*
X13831353Y-6917220D01*
X13824735Y-6916569D01*
X13818117Y-6915917D01*
X13804669Y-6911837D01*
X13801133Y-6910765D01*
X13785481Y-6902398D01*
X13785480Y-6902398D01*
X13781250Y-6898926D01*
X13771761Y-6891139D01*
X13762742Y-6880150D01*
X13760502Y-6877420D01*
X13759545Y-6875629D01*
X13752135Y-6861767D01*
X13750293Y-6855694D01*
X13746983Y-6844783D01*
X13745244Y-6827120D01*
X13746983Y-6809458D01*
X13752135Y-6792474D01*
X13752135Y-6792474D01*
X13760502Y-6776822D01*
X13760502Y-6776821D01*
X13763435Y-6773248D01*
X13771761Y-6763102D01*
X13781907Y-6754776D01*
X13785480Y-6751843D01*
X13787271Y-6750886D01*
X13801133Y-6743476D01*
X13808056Y-6741376D01*
X13818117Y-6738324D01*
X13825313Y-6737615D01*
X13831353Y-6737020D01*
X13840205Y-6737020D01*
X13846245Y-6737615D01*
X13846245Y-6737615D01*
G37*
G36*
X29294861Y-6715890D02*
X29302057Y-6716598D01*
X29313380Y-6720033D01*
X29319041Y-6721750D01*
X29332903Y-6729160D01*
X29334694Y-6730117D01*
X29335964Y-6731160D01*
X29348413Y-6741376D01*
X29356740Y-6751522D01*
X29359673Y-6755096D01*
X29359673Y-6755096D01*
X29368039Y-6770748D01*
X29368039Y-6770748D01*
X29373191Y-6787732D01*
X29374931Y-6805395D01*
X29373191Y-6823057D01*
X29372346Y-6825844D01*
X29368039Y-6840041D01*
X29364475Y-6846708D01*
X29359673Y-6855694D01*
X29357780Y-6858000D01*
X29348413Y-6869413D01*
X29338658Y-6877419D01*
X29334694Y-6880673D01*
X29334694Y-6880673D01*
X29319041Y-6889039D01*
X29317192Y-6889600D01*
X29302057Y-6894191D01*
X29295439Y-6894843D01*
X29288821Y-6895495D01*
X29279969Y-6895495D01*
X29273351Y-6894843D01*
X29266732Y-6894191D01*
X29251597Y-6889600D01*
X29249748Y-6889039D01*
X29234096Y-6880673D01*
X29234096Y-6880673D01*
X29230132Y-6877419D01*
X29220376Y-6869413D01*
X29211010Y-6858000D01*
X29209117Y-6855694D01*
X29204314Y-6846708D01*
X29200750Y-6840041D01*
X29196444Y-6825844D01*
X29195598Y-6823057D01*
X29193859Y-6805395D01*
X29195598Y-6787732D01*
X29200750Y-6770748D01*
X29200750Y-6770748D01*
X29209117Y-6755096D01*
X29209117Y-6755096D01*
X29212050Y-6751522D01*
X29220376Y-6741376D01*
X29232825Y-6731160D01*
X29234096Y-6730117D01*
X29235886Y-6729160D01*
X29249748Y-6721750D01*
X29255409Y-6720033D01*
X29266732Y-6716598D01*
X29273929Y-6715890D01*
X29279969Y-6715295D01*
X29288821Y-6715295D01*
X29294861Y-6715890D01*
X29294861Y-6715890D01*
G37*
G36*
X21685100Y-6889600D02*
X21494900Y-6889600D01*
X21494900Y-6699400D01*
X21685100Y-6699400D01*
X21685100Y-6889600D01*
X21685100Y-6889600D01*
G37*
G36*
X14025850Y-6558010D02*
X14033047Y-6558719D01*
X14043108Y-6561771D01*
X14050031Y-6563871D01*
X14063893Y-6571281D01*
X14065684Y-6572238D01*
X14069257Y-6575171D01*
X14079403Y-6583497D01*
X14087729Y-6593642D01*
X14090662Y-6597216D01*
X14090662Y-6597216D01*
X14099029Y-6612869D01*
X14099029Y-6612869D01*
X14104181Y-6629853D01*
X14105920Y-6647515D01*
X14104181Y-6665178D01*
X14100871Y-6676089D01*
X14099029Y-6682162D01*
X14091619Y-6696024D01*
X14090662Y-6697814D01*
X14089361Y-6699400D01*
X14079403Y-6711534D01*
X14069257Y-6719860D01*
X14065684Y-6722793D01*
X14065683Y-6722793D01*
X14050031Y-6731160D01*
X14044370Y-6732877D01*
X14033047Y-6736312D01*
X14026429Y-6736964D01*
X14019811Y-6737615D01*
X14010959Y-6737615D01*
X14004340Y-6736964D01*
X13997722Y-6736312D01*
X13986399Y-6732877D01*
X13980738Y-6731160D01*
X13965086Y-6722793D01*
X13965085Y-6722793D01*
X13961512Y-6719860D01*
X13951366Y-6711534D01*
X13941408Y-6699400D01*
X13940107Y-6697814D01*
X13939150Y-6696024D01*
X13931740Y-6682162D01*
X13929898Y-6676089D01*
X13926588Y-6665178D01*
X13924849Y-6647515D01*
X13926588Y-6629853D01*
X13931740Y-6612869D01*
X13931740Y-6612869D01*
X13940107Y-6597216D01*
X13940107Y-6597216D01*
X13943040Y-6593642D01*
X13951366Y-6583497D01*
X13961512Y-6575171D01*
X13965085Y-6572238D01*
X13966876Y-6571281D01*
X13980738Y-6563871D01*
X13987661Y-6561771D01*
X13997722Y-6558719D01*
X14004920Y-6558010D01*
X14010959Y-6557415D01*
X14019811Y-6557415D01*
X14025850Y-6558010D01*
X14025850Y-6558010D01*
G37*
G36*
X29115256Y-6536285D02*
X29122452Y-6536993D01*
X29133775Y-6540428D01*
X29139436Y-6542145D01*
X29153298Y-6549555D01*
X29155089Y-6550512D01*
X29156359Y-6551554D01*
X29168808Y-6561771D01*
X29177134Y-6571917D01*
X29180067Y-6575491D01*
X29180068Y-6575491D01*
X29188434Y-6591143D01*
X29188434Y-6591143D01*
X29193586Y-6608127D01*
X29195326Y-6625790D01*
X29193586Y-6643452D01*
X29192353Y-6647515D01*
X29188434Y-6660436D01*
X29181024Y-6674298D01*
X29180067Y-6676089D01*
X29177134Y-6679663D01*
X29168808Y-6689808D01*
X29159053Y-6697814D01*
X29155089Y-6701067D01*
X29155089Y-6701068D01*
X29139436Y-6709434D01*
X29133775Y-6711151D01*
X29122452Y-6714586D01*
X29115834Y-6715238D01*
X29109216Y-6715890D01*
X29100364Y-6715890D01*
X29093745Y-6715238D01*
X29087127Y-6714586D01*
X29075804Y-6711151D01*
X29070143Y-6709434D01*
X29054491Y-6701068D01*
X29054491Y-6701067D01*
X29050527Y-6697814D01*
X29040771Y-6689808D01*
X29032445Y-6679663D01*
X29029512Y-6676089D01*
X29028555Y-6674298D01*
X29021145Y-6660436D01*
X29017226Y-6647515D01*
X29015993Y-6643452D01*
X29014254Y-6625790D01*
X29015993Y-6608127D01*
X29021145Y-6591143D01*
X29021145Y-6591143D01*
X29029512Y-6575491D01*
X29029512Y-6575491D01*
X29032445Y-6571917D01*
X29040771Y-6561771D01*
X29053220Y-6551554D01*
X29054491Y-6550512D01*
X29056281Y-6549555D01*
X29070143Y-6542145D01*
X29075804Y-6540428D01*
X29087127Y-6536993D01*
X29094324Y-6536285D01*
X29100364Y-6535690D01*
X29109216Y-6535690D01*
X29115256Y-6536285D01*
X29115256Y-6536285D01*
G37*
G36*
X14205456Y-6378405D02*
X14212652Y-6379114D01*
X14222714Y-6382166D01*
X14229636Y-6384266D01*
X14243498Y-6391675D01*
X14245289Y-6392632D01*
X14248231Y-6395047D01*
X14259008Y-6403892D01*
X14265283Y-6411538D01*
X14270268Y-6417611D01*
X14270268Y-6417611D01*
X14278634Y-6433263D01*
X14278634Y-6433264D01*
X14283786Y-6450247D01*
X14285526Y-6467910D01*
X14283786Y-6485573D01*
X14280351Y-6496895D01*
X14278634Y-6502557D01*
X14274547Y-6510203D01*
X14270268Y-6518209D01*
X14267598Y-6521462D01*
X14259008Y-6531929D01*
X14248863Y-6540255D01*
X14245289Y-6543188D01*
X14245289Y-6543188D01*
X14229636Y-6551554D01*
X14223975Y-6553272D01*
X14212652Y-6556706D01*
X14206034Y-6557358D01*
X14199416Y-6558010D01*
X14190564Y-6558010D01*
X14183946Y-6557358D01*
X14177327Y-6556706D01*
X14166004Y-6553272D01*
X14160343Y-6551554D01*
X14144691Y-6543188D01*
X14144691Y-6543188D01*
X14141117Y-6540255D01*
X14130971Y-6531929D01*
X14122382Y-6521462D01*
X14119712Y-6518209D01*
X14115433Y-6510203D01*
X14111345Y-6502557D01*
X14109628Y-6496895D01*
X14106193Y-6485573D01*
X14104454Y-6467910D01*
X14106193Y-6450247D01*
X14111345Y-6433264D01*
X14111345Y-6433263D01*
X14119712Y-6417611D01*
X14119712Y-6417611D01*
X14124696Y-6411538D01*
X14130971Y-6403892D01*
X14141749Y-6395047D01*
X14144691Y-6392632D01*
X14146481Y-6391675D01*
X14160343Y-6384266D01*
X14167266Y-6382166D01*
X14177327Y-6379114D01*
X14184524Y-6378405D01*
X14190564Y-6377810D01*
X14199416Y-6377810D01*
X14205456Y-6378405D01*
X14205456Y-6378405D01*
G37*
G36*
X28935651Y-6356679D02*
X28942847Y-6357388D01*
X28954170Y-6360823D01*
X28959831Y-6362540D01*
X28973693Y-6369950D01*
X28975484Y-6370907D01*
X28976754Y-6371949D01*
X28989203Y-6382166D01*
X28997529Y-6392312D01*
X29000462Y-6395885D01*
X29000462Y-6395886D01*
X29008829Y-6411538D01*
X29008829Y-6411538D01*
X29013981Y-6428522D01*
X29015720Y-6446185D01*
X29013981Y-6463847D01*
X29012748Y-6467910D01*
X29008829Y-6480831D01*
X29006294Y-6485573D01*
X29000462Y-6496484D01*
X28997529Y-6500057D01*
X28989203Y-6510203D01*
X28979448Y-6518209D01*
X28975484Y-6521462D01*
X28975483Y-6521462D01*
X28959831Y-6529829D01*
X28954170Y-6531546D01*
X28942847Y-6534981D01*
X28936229Y-6535633D01*
X28929611Y-6536285D01*
X28920759Y-6536285D01*
X28914140Y-6535633D01*
X28907522Y-6534981D01*
X28896199Y-6531546D01*
X28890538Y-6529829D01*
X28874886Y-6521462D01*
X28874885Y-6521462D01*
X28870921Y-6518209D01*
X28861166Y-6510203D01*
X28852840Y-6500057D01*
X28849907Y-6496484D01*
X28844075Y-6485573D01*
X28841540Y-6480831D01*
X28837621Y-6467910D01*
X28836388Y-6463847D01*
X28834649Y-6446185D01*
X28836388Y-6428522D01*
X28841540Y-6411538D01*
X28841540Y-6411538D01*
X28849907Y-6395886D01*
X28849907Y-6395885D01*
X28852840Y-6392312D01*
X28861166Y-6382166D01*
X28873615Y-6371949D01*
X28874885Y-6370907D01*
X28876676Y-6369950D01*
X28890538Y-6362540D01*
X28896199Y-6360823D01*
X28907522Y-6357388D01*
X28914719Y-6356679D01*
X28920759Y-6356085D01*
X28929611Y-6356085D01*
X28935651Y-6356679D01*
X28935651Y-6356679D01*
G37*
G36*
X21630440Y-6258555D02*
X21647747Y-6265723D01*
X21663323Y-6276131D01*
X21676569Y-6289377D01*
X21686977Y-6304953D01*
X21694145Y-6322260D01*
X21697800Y-6340633D01*
X21697800Y-6359367D01*
X21694145Y-6377740D01*
X21686977Y-6395047D01*
X21676569Y-6410623D01*
X21663323Y-6423869D01*
X21647747Y-6434277D01*
X21630440Y-6441445D01*
X21612067Y-6445100D01*
X21593333Y-6445100D01*
X21574960Y-6441445D01*
X21557653Y-6434277D01*
X21542077Y-6423869D01*
X21528831Y-6410623D01*
X21518423Y-6395047D01*
X21511255Y-6377740D01*
X21507600Y-6359367D01*
X21507600Y-6340633D01*
X21511255Y-6322260D01*
X21518423Y-6304953D01*
X21528831Y-6289377D01*
X21542077Y-6276131D01*
X21557653Y-6265723D01*
X21574960Y-6258555D01*
X21593333Y-6254900D01*
X21612067Y-6254900D01*
X21630440Y-6258555D01*
X21630440Y-6258555D01*
G37*
G36*
X14385639Y-6198857D02*
X14392258Y-6199509D01*
X14402319Y-6202561D01*
X14409242Y-6204661D01*
X14423104Y-6212070D01*
X14424894Y-6213027D01*
X14428468Y-6215960D01*
X14438613Y-6224286D01*
X14446940Y-6234432D01*
X14449873Y-6238006D01*
X14449873Y-6238006D01*
X14458239Y-6253658D01*
X14458239Y-6253658D01*
X14463391Y-6270642D01*
X14465131Y-6288305D01*
X14463391Y-6305968D01*
X14459956Y-6317290D01*
X14458239Y-6322952D01*
X14454152Y-6330598D01*
X14449873Y-6338604D01*
X14448207Y-6340633D01*
X14438613Y-6352324D01*
X14428468Y-6360650D01*
X14424894Y-6363583D01*
X14424894Y-6363583D01*
X14409242Y-6371949D01*
X14403580Y-6373667D01*
X14392258Y-6377101D01*
X14385778Y-6377740D01*
X14379021Y-6378405D01*
X14370169Y-6378405D01*
X14363412Y-6377740D01*
X14356932Y-6377101D01*
X14345610Y-6373667D01*
X14339948Y-6371949D01*
X14324296Y-6363583D01*
X14324296Y-6363583D01*
X14320722Y-6360650D01*
X14310576Y-6352324D01*
X14300982Y-6340633D01*
X14299317Y-6338604D01*
X14295038Y-6330598D01*
X14290951Y-6322952D01*
X14289233Y-6317290D01*
X14285799Y-6305968D01*
X14284059Y-6288305D01*
X14285799Y-6270642D01*
X14290951Y-6253658D01*
X14290951Y-6253658D01*
X14299317Y-6238006D01*
X14299317Y-6238006D01*
X14302250Y-6234432D01*
X14310576Y-6224286D01*
X14320722Y-6215960D01*
X14324296Y-6213027D01*
X14326086Y-6212070D01*
X14339948Y-6204661D01*
X14346871Y-6202561D01*
X14356932Y-6199509D01*
X14363551Y-6198857D01*
X14370169Y-6198205D01*
X14379021Y-6198205D01*
X14385639Y-6198857D01*
X14385639Y-6198857D01*
G37*
G36*
X28756044Y-6177074D02*
X28763242Y-6177783D01*
X28774565Y-6181218D01*
X28780226Y-6182935D01*
X28794088Y-6190345D01*
X28795879Y-6191302D01*
X28799452Y-6194235D01*
X28809598Y-6202561D01*
X28817924Y-6212707D01*
X28820857Y-6216280D01*
X28820857Y-6216281D01*
X28829224Y-6231933D01*
X28829355Y-6232367D01*
X28834376Y-6248917D01*
X28836115Y-6266579D01*
X28834376Y-6284242D01*
X28832818Y-6289377D01*
X28829224Y-6301226D01*
X28827232Y-6304953D01*
X28820857Y-6316879D01*
X28819855Y-6318100D01*
X28809598Y-6330598D01*
X28799843Y-6338604D01*
X28795879Y-6341857D01*
X28795878Y-6341857D01*
X28780226Y-6350224D01*
X28774565Y-6351941D01*
X28763242Y-6355376D01*
X28756624Y-6356028D01*
X28750005Y-6356679D01*
X28741153Y-6356679D01*
X28734535Y-6356028D01*
X28727917Y-6355376D01*
X28716594Y-6351941D01*
X28710933Y-6350224D01*
X28695281Y-6341857D01*
X28695280Y-6341857D01*
X28691316Y-6338604D01*
X28681561Y-6330598D01*
X28671304Y-6318100D01*
X28670302Y-6316879D01*
X28663927Y-6304953D01*
X28661935Y-6301226D01*
X28658341Y-6289377D01*
X28656783Y-6284242D01*
X28655044Y-6266579D01*
X28656783Y-6248917D01*
X28661804Y-6232367D01*
X28661935Y-6231933D01*
X28670302Y-6216281D01*
X28670302Y-6216280D01*
X28673235Y-6212707D01*
X28681561Y-6202561D01*
X28691707Y-6194235D01*
X28695280Y-6191302D01*
X28697071Y-6190345D01*
X28710933Y-6182935D01*
X28716594Y-6181218D01*
X28727917Y-6177783D01*
X28735114Y-6177074D01*
X28741153Y-6176479D01*
X28750005Y-6176479D01*
X28756044Y-6177074D01*
X28756044Y-6177074D01*
G37*
G36*
X20792240Y-6131555D02*
X20809547Y-6138723D01*
X20825123Y-6149131D01*
X20838369Y-6162377D01*
X20848777Y-6177953D01*
X20855945Y-6195260D01*
X20859600Y-6213633D01*
X20859600Y-6232367D01*
X20855945Y-6250740D01*
X20848777Y-6268047D01*
X20838369Y-6283623D01*
X20825123Y-6296869D01*
X20809547Y-6307277D01*
X20792240Y-6314445D01*
X20773867Y-6318100D01*
X20755133Y-6318100D01*
X20736760Y-6314445D01*
X20719453Y-6307277D01*
X20703877Y-6296869D01*
X20690631Y-6283623D01*
X20680223Y-6268047D01*
X20673055Y-6250740D01*
X20669400Y-6232367D01*
X20669400Y-6213633D01*
X20673055Y-6195260D01*
X20680223Y-6177953D01*
X20690631Y-6162377D01*
X20703877Y-6149131D01*
X20719453Y-6138723D01*
X20736760Y-6131555D01*
X20755133Y-6127900D01*
X20773867Y-6127900D01*
X20792240Y-6131555D01*
X20792240Y-6131555D01*
G37*
G36*
X22256600Y-6318100D02*
X22066400Y-6318100D01*
X22066400Y-6127900D01*
X22256600Y-6127900D01*
X22256600Y-6318100D01*
X22256600Y-6318100D01*
G37*
G36*
X21113600Y-6318100D02*
X20923400Y-6318100D01*
X20923400Y-6127900D01*
X21113600Y-6127900D01*
X21113600Y-6318100D01*
X21113600Y-6318100D01*
G37*
G36*
X22443240Y-6131555D02*
X22460547Y-6138723D01*
X22476123Y-6149131D01*
X22489369Y-6162377D01*
X22499777Y-6177953D01*
X22506945Y-6195260D01*
X22510600Y-6213633D01*
X22510600Y-6232367D01*
X22506945Y-6250740D01*
X22499777Y-6268047D01*
X22489369Y-6283623D01*
X22476123Y-6296869D01*
X22460547Y-6307277D01*
X22443240Y-6314445D01*
X22424867Y-6318100D01*
X22406133Y-6318100D01*
X22387760Y-6314445D01*
X22370453Y-6307277D01*
X22354877Y-6296869D01*
X22341631Y-6283623D01*
X22331223Y-6268047D01*
X22324055Y-6250740D01*
X22320400Y-6232367D01*
X22320400Y-6213633D01*
X22324055Y-6195260D01*
X22331223Y-6177953D01*
X22341631Y-6162377D01*
X22354877Y-6149131D01*
X22370453Y-6138723D01*
X22387760Y-6131555D01*
X22406133Y-6127900D01*
X22424867Y-6127900D01*
X22443240Y-6131555D01*
X22443240Y-6131555D01*
G37*
G36*
X14681621Y-6108700D02*
X14554200Y-6236121D01*
X14426779Y-6108700D01*
X14554200Y-5981279D01*
X14681621Y-6108700D01*
X14681621Y-6108700D01*
G37*
G36*
X21697800Y-6191100D02*
X21507600Y-6191100D01*
X21507600Y-6000900D01*
X21697800Y-6000900D01*
X21697800Y-6191100D01*
X21697800Y-6191100D01*
G37*
G36*
X28577018Y-5997526D02*
X28583637Y-5998178D01*
X28592610Y-6000900D01*
X28600621Y-6003330D01*
X28614483Y-6010739D01*
X28616273Y-6011696D01*
X28619847Y-6014629D01*
X28629993Y-6022956D01*
X28638319Y-6033101D01*
X28641252Y-6036675D01*
X28641252Y-6036675D01*
X28649619Y-6052328D01*
X28649619Y-6052328D01*
X28654771Y-6069312D01*
X28656510Y-6086974D01*
X28654771Y-6104637D01*
X28653538Y-6108700D01*
X28649619Y-6121621D01*
X28644309Y-6131555D01*
X28641252Y-6137273D01*
X28640062Y-6138723D01*
X28629993Y-6150993D01*
X28619847Y-6159319D01*
X28616273Y-6162252D01*
X28616273Y-6162252D01*
X28600621Y-6170619D01*
X28594960Y-6172336D01*
X28583637Y-6175771D01*
X28577018Y-6176422D01*
X28570400Y-6177074D01*
X28561548Y-6177074D01*
X28554930Y-6176422D01*
X28548312Y-6175771D01*
X28536989Y-6172336D01*
X28531328Y-6170619D01*
X28515675Y-6162252D01*
X28515675Y-6162252D01*
X28512101Y-6159319D01*
X28501956Y-6150993D01*
X28491886Y-6138723D01*
X28490696Y-6137273D01*
X28487640Y-6131555D01*
X28482330Y-6121621D01*
X28478410Y-6108700D01*
X28477178Y-6104637D01*
X28475438Y-6086974D01*
X28477178Y-6069312D01*
X28482330Y-6052328D01*
X28482330Y-6052328D01*
X28490696Y-6036675D01*
X28490696Y-6036675D01*
X28493629Y-6033101D01*
X28501956Y-6022956D01*
X28512101Y-6014629D01*
X28515675Y-6011696D01*
X28517466Y-6010739D01*
X28531328Y-6003330D01*
X28539338Y-6000900D01*
X28548312Y-5998178D01*
X28554930Y-5997526D01*
X28561548Y-5996874D01*
X28570400Y-5996874D01*
X28577018Y-5997526D01*
X28577018Y-5997526D01*
G37*
G36*
X21685100Y-5746600D02*
X21494900Y-5746600D01*
X21494900Y-5556400D01*
X21685100Y-5556400D01*
X21685100Y-5746600D01*
X21685100Y-5746600D01*
G37*
G36*
X21617740Y-5306055D02*
X21635047Y-5313223D01*
X21650623Y-5323631D01*
X21663869Y-5336877D01*
X21674277Y-5352453D01*
X21681445Y-5369760D01*
X21685100Y-5388133D01*
X21685100Y-5406867D01*
X21681445Y-5425240D01*
X21674277Y-5442547D01*
X21663869Y-5458123D01*
X21650623Y-5471369D01*
X21635047Y-5481777D01*
X21617740Y-5488945D01*
X21599367Y-5492600D01*
X21580633Y-5492600D01*
X21562260Y-5488945D01*
X21544953Y-5481777D01*
X21529377Y-5471369D01*
X21516131Y-5458123D01*
X21505723Y-5442547D01*
X21498555Y-5425240D01*
X21494900Y-5406867D01*
X21494900Y-5388133D01*
X21498555Y-5369760D01*
X21505723Y-5352453D01*
X21516131Y-5336877D01*
X21529377Y-5323631D01*
X21544953Y-5313223D01*
X21562260Y-5306055D01*
X21580633Y-5302400D01*
X21599367Y-5302400D01*
X21617740Y-5306055D01*
X21617740Y-5306055D01*
G37*
G36*
X17870100Y-4281100D02*
X17689900Y-4281100D01*
X17689900Y-4100900D01*
X17870100Y-4100900D01*
X17870100Y-4281100D01*
X17870100Y-4281100D01*
G37*
G36*
X25157044Y-4101552D02*
X25163663Y-4102204D01*
X25174985Y-4105638D01*
X25180647Y-4107356D01*
X25194509Y-4114765D01*
X25196299Y-4115722D01*
X25199873Y-4118655D01*
X25210019Y-4126981D01*
X25218345Y-4137127D01*
X25221278Y-4140701D01*
X25221278Y-4140701D01*
X25229644Y-4156353D01*
X25229644Y-4156353D01*
X25234796Y-4173337D01*
X25236536Y-4191000D01*
X25234796Y-4208663D01*
X25231362Y-4219985D01*
X25229644Y-4225647D01*
X25222235Y-4239509D01*
X25221278Y-4241299D01*
X25218345Y-4244873D01*
X25210019Y-4255019D01*
X25199873Y-4263345D01*
X25196299Y-4266278D01*
X25196299Y-4266278D01*
X25180647Y-4274644D01*
X25174985Y-4276362D01*
X25163663Y-4279796D01*
X25157044Y-4280448D01*
X25150426Y-4281100D01*
X25141574Y-4281100D01*
X25134956Y-4280448D01*
X25128337Y-4279796D01*
X25117015Y-4276362D01*
X25111353Y-4274644D01*
X25095701Y-4266278D01*
X25095701Y-4266278D01*
X25092127Y-4263345D01*
X25081981Y-4255019D01*
X25073655Y-4244873D01*
X25070722Y-4241299D01*
X25069765Y-4239509D01*
X25062356Y-4225647D01*
X25060638Y-4219985D01*
X25057204Y-4208663D01*
X25055464Y-4191000D01*
X25057204Y-4173337D01*
X25062356Y-4156353D01*
X25062356Y-4156353D01*
X25070722Y-4140701D01*
X25070722Y-4140701D01*
X25073655Y-4137127D01*
X25081981Y-4126981D01*
X25092127Y-4118655D01*
X25095701Y-4115722D01*
X25097491Y-4114765D01*
X25111353Y-4107356D01*
X25117015Y-4105638D01*
X25128337Y-4102204D01*
X25134956Y-4101552D01*
X25141574Y-4100900D01*
X25150426Y-4100900D01*
X25157044Y-4101552D01*
X25157044Y-4101552D01*
G37*
G36*
X24903044Y-4101552D02*
X24909663Y-4102204D01*
X24920985Y-4105638D01*
X24926647Y-4107356D01*
X24940509Y-4114765D01*
X24942299Y-4115722D01*
X24945873Y-4118655D01*
X24956019Y-4126981D01*
X24964345Y-4137127D01*
X24967278Y-4140701D01*
X24967278Y-4140701D01*
X24975644Y-4156353D01*
X24975644Y-4156353D01*
X24980796Y-4173337D01*
X24982536Y-4191000D01*
X24980796Y-4208663D01*
X24977362Y-4219985D01*
X24975644Y-4225647D01*
X24968235Y-4239509D01*
X24967278Y-4241299D01*
X24964345Y-4244873D01*
X24956019Y-4255019D01*
X24945873Y-4263345D01*
X24942299Y-4266278D01*
X24942299Y-4266278D01*
X24926647Y-4274644D01*
X24920985Y-4276362D01*
X24909663Y-4279796D01*
X24903044Y-4280448D01*
X24896426Y-4281100D01*
X24887574Y-4281100D01*
X24880956Y-4280448D01*
X24874337Y-4279796D01*
X24863015Y-4276362D01*
X24857353Y-4274644D01*
X24841701Y-4266278D01*
X24841701Y-4266278D01*
X24838127Y-4263345D01*
X24827981Y-4255019D01*
X24819655Y-4244873D01*
X24816722Y-4241299D01*
X24815765Y-4239509D01*
X24808356Y-4225647D01*
X24806638Y-4219985D01*
X24803204Y-4208663D01*
X24801464Y-4191000D01*
X24803204Y-4173337D01*
X24808356Y-4156353D01*
X24808356Y-4156353D01*
X24816722Y-4140701D01*
X24816722Y-4140701D01*
X24819655Y-4137127D01*
X24827981Y-4126981D01*
X24838127Y-4118655D01*
X24841701Y-4115722D01*
X24843491Y-4114765D01*
X24857353Y-4107356D01*
X24863015Y-4105638D01*
X24874337Y-4102204D01*
X24880956Y-4101552D01*
X24887574Y-4100900D01*
X24896426Y-4100900D01*
X24903044Y-4101552D01*
X24903044Y-4101552D01*
G37*
G36*
X24649044Y-4101552D02*
X24655663Y-4102204D01*
X24666985Y-4105638D01*
X24672647Y-4107356D01*
X24686509Y-4114765D01*
X24688299Y-4115722D01*
X24691873Y-4118655D01*
X24702019Y-4126981D01*
X24710345Y-4137127D01*
X24713278Y-4140701D01*
X24713278Y-4140701D01*
X24721644Y-4156353D01*
X24721644Y-4156353D01*
X24726796Y-4173337D01*
X24728536Y-4191000D01*
X24726796Y-4208663D01*
X24723362Y-4219985D01*
X24721644Y-4225647D01*
X24714235Y-4239509D01*
X24713278Y-4241299D01*
X24710345Y-4244873D01*
X24702019Y-4255019D01*
X24691873Y-4263345D01*
X24688299Y-4266278D01*
X24688299Y-4266278D01*
X24672647Y-4274644D01*
X24666985Y-4276362D01*
X24655663Y-4279796D01*
X24649044Y-4280448D01*
X24642426Y-4281100D01*
X24633574Y-4281100D01*
X24626956Y-4280448D01*
X24620337Y-4279796D01*
X24609015Y-4276362D01*
X24603353Y-4274644D01*
X24587701Y-4266278D01*
X24587701Y-4266278D01*
X24584127Y-4263345D01*
X24573981Y-4255019D01*
X24565655Y-4244873D01*
X24562722Y-4241299D01*
X24561765Y-4239509D01*
X24554356Y-4225647D01*
X24552638Y-4219985D01*
X24549204Y-4208663D01*
X24547464Y-4191000D01*
X24549204Y-4173337D01*
X24554356Y-4156353D01*
X24554356Y-4156353D01*
X24562722Y-4140701D01*
X24562722Y-4140701D01*
X24565655Y-4137127D01*
X24573981Y-4126981D01*
X24584127Y-4118655D01*
X24587701Y-4115722D01*
X24589491Y-4114765D01*
X24603353Y-4107356D01*
X24609015Y-4105638D01*
X24620337Y-4102204D01*
X24626956Y-4101552D01*
X24633574Y-4100900D01*
X24642426Y-4100900D01*
X24649044Y-4101552D01*
X24649044Y-4101552D01*
G37*
G36*
X24395044Y-4101552D02*
X24401663Y-4102204D01*
X24412985Y-4105638D01*
X24418647Y-4107356D01*
X24432509Y-4114765D01*
X24434299Y-4115722D01*
X24437873Y-4118655D01*
X24448019Y-4126981D01*
X24456345Y-4137127D01*
X24459278Y-4140701D01*
X24459278Y-4140701D01*
X24467644Y-4156353D01*
X24467644Y-4156353D01*
X24472796Y-4173337D01*
X24474536Y-4191000D01*
X24472796Y-4208663D01*
X24469362Y-4219985D01*
X24467644Y-4225647D01*
X24460235Y-4239509D01*
X24459278Y-4241299D01*
X24456345Y-4244873D01*
X24448019Y-4255019D01*
X24437873Y-4263345D01*
X24434299Y-4266278D01*
X24434299Y-4266278D01*
X24418647Y-4274644D01*
X24412985Y-4276362D01*
X24401663Y-4279796D01*
X24395044Y-4280448D01*
X24388426Y-4281100D01*
X24379574Y-4281100D01*
X24372956Y-4280448D01*
X24366337Y-4279796D01*
X24355015Y-4276362D01*
X24349353Y-4274644D01*
X24333701Y-4266278D01*
X24333701Y-4266278D01*
X24330127Y-4263345D01*
X24319981Y-4255019D01*
X24311655Y-4244873D01*
X24308722Y-4241299D01*
X24307765Y-4239509D01*
X24300356Y-4225647D01*
X24298638Y-4219985D01*
X24295204Y-4208663D01*
X24293464Y-4191000D01*
X24295204Y-4173337D01*
X24300356Y-4156353D01*
X24300356Y-4156353D01*
X24308722Y-4140701D01*
X24308722Y-4140701D01*
X24311655Y-4137127D01*
X24319981Y-4126981D01*
X24330127Y-4118655D01*
X24333701Y-4115722D01*
X24335491Y-4114765D01*
X24349353Y-4107356D01*
X24355015Y-4105638D01*
X24366337Y-4102204D01*
X24372956Y-4101552D01*
X24379574Y-4100900D01*
X24388426Y-4100900D01*
X24395044Y-4101552D01*
X24395044Y-4101552D01*
G37*
G36*
X24141044Y-4101552D02*
X24147663Y-4102204D01*
X24158985Y-4105638D01*
X24164647Y-4107356D01*
X24178509Y-4114765D01*
X24180299Y-4115722D01*
X24183873Y-4118655D01*
X24194019Y-4126981D01*
X24202345Y-4137127D01*
X24205278Y-4140701D01*
X24205278Y-4140701D01*
X24213644Y-4156353D01*
X24213644Y-4156353D01*
X24218796Y-4173337D01*
X24220536Y-4191000D01*
X24218796Y-4208663D01*
X24215362Y-4219985D01*
X24213644Y-4225647D01*
X24206235Y-4239509D01*
X24205278Y-4241299D01*
X24202345Y-4244873D01*
X24194019Y-4255019D01*
X24183873Y-4263345D01*
X24180299Y-4266278D01*
X24180299Y-4266278D01*
X24164647Y-4274644D01*
X24158985Y-4276362D01*
X24147663Y-4279796D01*
X24141044Y-4280448D01*
X24134426Y-4281100D01*
X24125574Y-4281100D01*
X24118956Y-4280448D01*
X24112337Y-4279796D01*
X24101015Y-4276362D01*
X24095353Y-4274644D01*
X24079701Y-4266278D01*
X24079701Y-4266278D01*
X24076127Y-4263345D01*
X24065981Y-4255019D01*
X24057655Y-4244873D01*
X24054722Y-4241299D01*
X24053765Y-4239509D01*
X24046356Y-4225647D01*
X24044638Y-4219985D01*
X24041204Y-4208663D01*
X24039464Y-4191000D01*
X24041204Y-4173337D01*
X24046356Y-4156353D01*
X24046356Y-4156353D01*
X24054722Y-4140701D01*
X24054722Y-4140701D01*
X24057655Y-4137127D01*
X24065981Y-4126981D01*
X24076127Y-4118655D01*
X24079701Y-4115722D01*
X24081491Y-4114765D01*
X24095353Y-4107356D01*
X24101015Y-4105638D01*
X24112337Y-4102204D01*
X24118956Y-4101552D01*
X24125574Y-4100900D01*
X24134426Y-4100900D01*
X24141044Y-4101552D01*
X24141044Y-4101552D01*
G37*
G36*
X23966100Y-4281100D02*
X23785900Y-4281100D01*
X23785900Y-4100900D01*
X23966100Y-4100900D01*
X23966100Y-4281100D01*
X23966100Y-4281100D01*
G37*
G36*
X19569044Y-4101552D02*
X19575663Y-4102204D01*
X19586985Y-4105638D01*
X19592647Y-4107356D01*
X19606509Y-4114765D01*
X19608299Y-4115722D01*
X19611873Y-4118655D01*
X19622019Y-4126981D01*
X19630345Y-4137127D01*
X19633278Y-4140701D01*
X19633278Y-4140701D01*
X19641644Y-4156353D01*
X19641644Y-4156353D01*
X19646796Y-4173337D01*
X19648536Y-4191000D01*
X19646796Y-4208663D01*
X19643362Y-4219985D01*
X19641644Y-4225647D01*
X19634235Y-4239509D01*
X19633278Y-4241299D01*
X19630345Y-4244873D01*
X19622019Y-4255019D01*
X19611873Y-4263345D01*
X19608299Y-4266278D01*
X19608299Y-4266278D01*
X19592647Y-4274644D01*
X19586985Y-4276362D01*
X19575663Y-4279796D01*
X19569044Y-4280448D01*
X19562426Y-4281100D01*
X19553574Y-4281100D01*
X19546956Y-4280448D01*
X19540337Y-4279796D01*
X19529015Y-4276362D01*
X19523353Y-4274644D01*
X19507701Y-4266278D01*
X19507701Y-4266278D01*
X19504127Y-4263345D01*
X19493981Y-4255019D01*
X19485655Y-4244873D01*
X19482722Y-4241299D01*
X19481765Y-4239509D01*
X19474356Y-4225647D01*
X19472638Y-4219985D01*
X19469204Y-4208663D01*
X19467464Y-4191000D01*
X19469204Y-4173337D01*
X19474356Y-4156353D01*
X19474356Y-4156353D01*
X19482722Y-4140701D01*
X19482722Y-4140701D01*
X19485655Y-4137127D01*
X19493981Y-4126981D01*
X19504127Y-4118655D01*
X19507701Y-4115722D01*
X19509491Y-4114765D01*
X19523353Y-4107356D01*
X19529015Y-4105638D01*
X19540337Y-4102204D01*
X19546956Y-4101552D01*
X19553574Y-4100900D01*
X19562426Y-4100900D01*
X19569044Y-4101552D01*
X19569044Y-4101552D01*
G37*
G36*
X25411044Y-4101552D02*
X25417663Y-4102204D01*
X25428985Y-4105638D01*
X25434647Y-4107356D01*
X25448509Y-4114765D01*
X25450299Y-4115722D01*
X25453873Y-4118655D01*
X25464019Y-4126981D01*
X25472345Y-4137127D01*
X25475278Y-4140701D01*
X25475278Y-4140701D01*
X25483644Y-4156353D01*
X25483644Y-4156353D01*
X25488796Y-4173337D01*
X25490536Y-4191000D01*
X25488796Y-4208663D01*
X25485362Y-4219985D01*
X25483644Y-4225647D01*
X25476235Y-4239509D01*
X25475278Y-4241299D01*
X25472345Y-4244873D01*
X25464019Y-4255019D01*
X25453873Y-4263345D01*
X25450299Y-4266278D01*
X25450299Y-4266278D01*
X25434647Y-4274644D01*
X25428985Y-4276362D01*
X25417663Y-4279796D01*
X25411044Y-4280448D01*
X25404426Y-4281100D01*
X25395574Y-4281100D01*
X25388956Y-4280448D01*
X25382337Y-4279796D01*
X25371015Y-4276362D01*
X25365353Y-4274644D01*
X25349701Y-4266278D01*
X25349701Y-4266278D01*
X25346127Y-4263345D01*
X25335981Y-4255019D01*
X25327655Y-4244873D01*
X25324722Y-4241299D01*
X25323765Y-4239509D01*
X25316356Y-4225647D01*
X25314638Y-4219985D01*
X25311204Y-4208663D01*
X25309464Y-4191000D01*
X25311204Y-4173337D01*
X25316356Y-4156353D01*
X25316356Y-4156353D01*
X25324722Y-4140701D01*
X25324722Y-4140701D01*
X25327655Y-4137127D01*
X25335981Y-4126981D01*
X25346127Y-4118655D01*
X25349701Y-4115722D01*
X25351491Y-4114765D01*
X25365353Y-4107356D01*
X25371015Y-4105638D01*
X25382337Y-4102204D01*
X25388956Y-4101552D01*
X25395574Y-4100900D01*
X25404426Y-4100900D01*
X25411044Y-4101552D01*
X25411044Y-4101552D01*
G37*
G36*
X19061044Y-4101552D02*
X19067663Y-4102204D01*
X19078985Y-4105638D01*
X19084647Y-4107356D01*
X19098509Y-4114765D01*
X19100299Y-4115722D01*
X19103873Y-4118655D01*
X19114019Y-4126981D01*
X19122345Y-4137127D01*
X19125278Y-4140701D01*
X19125278Y-4140701D01*
X19133644Y-4156353D01*
X19133644Y-4156353D01*
X19138796Y-4173337D01*
X19140536Y-4191000D01*
X19138796Y-4208663D01*
X19135362Y-4219985D01*
X19133644Y-4225647D01*
X19126235Y-4239509D01*
X19125278Y-4241299D01*
X19122345Y-4244873D01*
X19114019Y-4255019D01*
X19103873Y-4263345D01*
X19100299Y-4266278D01*
X19100299Y-4266278D01*
X19084647Y-4274644D01*
X19078985Y-4276362D01*
X19067663Y-4279796D01*
X19061044Y-4280448D01*
X19054426Y-4281100D01*
X19045574Y-4281100D01*
X19038956Y-4280448D01*
X19032337Y-4279796D01*
X19021015Y-4276362D01*
X19015353Y-4274644D01*
X18999701Y-4266278D01*
X18999701Y-4266278D01*
X18996127Y-4263345D01*
X18985981Y-4255019D01*
X18977655Y-4244873D01*
X18974722Y-4241299D01*
X18973765Y-4239509D01*
X18966356Y-4225647D01*
X18964638Y-4219985D01*
X18961204Y-4208663D01*
X18959464Y-4191000D01*
X18961204Y-4173337D01*
X18966356Y-4156353D01*
X18966356Y-4156353D01*
X18974722Y-4140701D01*
X18974722Y-4140701D01*
X18977655Y-4137127D01*
X18985981Y-4126981D01*
X18996127Y-4118655D01*
X18999701Y-4115722D01*
X19001491Y-4114765D01*
X19015353Y-4107356D01*
X19021015Y-4105638D01*
X19032337Y-4102204D01*
X19038956Y-4101552D01*
X19045574Y-4100900D01*
X19054426Y-4100900D01*
X19061044Y-4101552D01*
X19061044Y-4101552D01*
G37*
G36*
X18807044Y-4101552D02*
X18813663Y-4102204D01*
X18824985Y-4105638D01*
X18830647Y-4107356D01*
X18844509Y-4114765D01*
X18846299Y-4115722D01*
X18849873Y-4118655D01*
X18860019Y-4126981D01*
X18868345Y-4137127D01*
X18871278Y-4140701D01*
X18871278Y-4140701D01*
X18879644Y-4156353D01*
X18879644Y-4156353D01*
X18884796Y-4173337D01*
X18886536Y-4191000D01*
X18884796Y-4208663D01*
X18881362Y-4219985D01*
X18879644Y-4225647D01*
X18872235Y-4239509D01*
X18871278Y-4241299D01*
X18868345Y-4244873D01*
X18860019Y-4255019D01*
X18849873Y-4263345D01*
X18846299Y-4266278D01*
X18846299Y-4266278D01*
X18830647Y-4274644D01*
X18824985Y-4276362D01*
X18813663Y-4279796D01*
X18807044Y-4280448D01*
X18800426Y-4281100D01*
X18791574Y-4281100D01*
X18784956Y-4280448D01*
X18778337Y-4279796D01*
X18767015Y-4276362D01*
X18761353Y-4274644D01*
X18745701Y-4266278D01*
X18745701Y-4266278D01*
X18742127Y-4263345D01*
X18731981Y-4255019D01*
X18723655Y-4244873D01*
X18720722Y-4241299D01*
X18719765Y-4239509D01*
X18712356Y-4225647D01*
X18710638Y-4219985D01*
X18707204Y-4208663D01*
X18705464Y-4191000D01*
X18707204Y-4173337D01*
X18712356Y-4156353D01*
X18712356Y-4156353D01*
X18720722Y-4140701D01*
X18720722Y-4140701D01*
X18723655Y-4137127D01*
X18731981Y-4126981D01*
X18742127Y-4118655D01*
X18745701Y-4115722D01*
X18747491Y-4114765D01*
X18761353Y-4107356D01*
X18767015Y-4105638D01*
X18778337Y-4102204D01*
X18784956Y-4101552D01*
X18791574Y-4100900D01*
X18800426Y-4100900D01*
X18807044Y-4101552D01*
X18807044Y-4101552D01*
G37*
G36*
X18553044Y-4101552D02*
X18559663Y-4102204D01*
X18570985Y-4105638D01*
X18576647Y-4107356D01*
X18590509Y-4114765D01*
X18592299Y-4115722D01*
X18595873Y-4118655D01*
X18606019Y-4126981D01*
X18614345Y-4137127D01*
X18617278Y-4140701D01*
X18617278Y-4140701D01*
X18625644Y-4156353D01*
X18625644Y-4156353D01*
X18630796Y-4173337D01*
X18632536Y-4191000D01*
X18630796Y-4208663D01*
X18627362Y-4219985D01*
X18625644Y-4225647D01*
X18618235Y-4239509D01*
X18617278Y-4241299D01*
X18614345Y-4244873D01*
X18606019Y-4255019D01*
X18595873Y-4263345D01*
X18592299Y-4266278D01*
X18592299Y-4266278D01*
X18576647Y-4274644D01*
X18570985Y-4276362D01*
X18559663Y-4279796D01*
X18553044Y-4280448D01*
X18546426Y-4281100D01*
X18537574Y-4281100D01*
X18530956Y-4280448D01*
X18524337Y-4279796D01*
X18513015Y-4276362D01*
X18507353Y-4274644D01*
X18491701Y-4266278D01*
X18491701Y-4266278D01*
X18488127Y-4263345D01*
X18477981Y-4255019D01*
X18469655Y-4244873D01*
X18466722Y-4241299D01*
X18465765Y-4239509D01*
X18458356Y-4225647D01*
X18456638Y-4219985D01*
X18453204Y-4208663D01*
X18451464Y-4191000D01*
X18453204Y-4173337D01*
X18458356Y-4156353D01*
X18458356Y-4156353D01*
X18466722Y-4140701D01*
X18466722Y-4140701D01*
X18469655Y-4137127D01*
X18477981Y-4126981D01*
X18488127Y-4118655D01*
X18491701Y-4115722D01*
X18493491Y-4114765D01*
X18507353Y-4107356D01*
X18513015Y-4105638D01*
X18524337Y-4102204D01*
X18530956Y-4101552D01*
X18537574Y-4100900D01*
X18546426Y-4100900D01*
X18553044Y-4101552D01*
X18553044Y-4101552D01*
G37*
G36*
X18299044Y-4101552D02*
X18305663Y-4102204D01*
X18316985Y-4105638D01*
X18322647Y-4107356D01*
X18336509Y-4114765D01*
X18338299Y-4115722D01*
X18341873Y-4118655D01*
X18352019Y-4126981D01*
X18360345Y-4137127D01*
X18363278Y-4140701D01*
X18363278Y-4140701D01*
X18371644Y-4156353D01*
X18371644Y-4156353D01*
X18376796Y-4173337D01*
X18378536Y-4191000D01*
X18376796Y-4208663D01*
X18373362Y-4219985D01*
X18371644Y-4225647D01*
X18364235Y-4239509D01*
X18363278Y-4241299D01*
X18360345Y-4244873D01*
X18352019Y-4255019D01*
X18341873Y-4263345D01*
X18338299Y-4266278D01*
X18338299Y-4266278D01*
X18322647Y-4274644D01*
X18316985Y-4276362D01*
X18305663Y-4279796D01*
X18299044Y-4280448D01*
X18292426Y-4281100D01*
X18283574Y-4281100D01*
X18276956Y-4280448D01*
X18270337Y-4279796D01*
X18259015Y-4276362D01*
X18253353Y-4274644D01*
X18237701Y-4266278D01*
X18237701Y-4266278D01*
X18234127Y-4263345D01*
X18223981Y-4255019D01*
X18215655Y-4244873D01*
X18212722Y-4241299D01*
X18211765Y-4239509D01*
X18204356Y-4225647D01*
X18202638Y-4219985D01*
X18199204Y-4208663D01*
X18197464Y-4191000D01*
X18199204Y-4173337D01*
X18204356Y-4156353D01*
X18204356Y-4156353D01*
X18212722Y-4140701D01*
X18212722Y-4140701D01*
X18215655Y-4137127D01*
X18223981Y-4126981D01*
X18234127Y-4118655D01*
X18237701Y-4115722D01*
X18239491Y-4114765D01*
X18253353Y-4107356D01*
X18259015Y-4105638D01*
X18270337Y-4102204D01*
X18276956Y-4101552D01*
X18283574Y-4100900D01*
X18292426Y-4100900D01*
X18299044Y-4101552D01*
X18299044Y-4101552D01*
G37*
G36*
X18045044Y-4101552D02*
X18051663Y-4102204D01*
X18062985Y-4105638D01*
X18068647Y-4107356D01*
X18082509Y-4114765D01*
X18084299Y-4115722D01*
X18087873Y-4118655D01*
X18098019Y-4126981D01*
X18106345Y-4137127D01*
X18109278Y-4140701D01*
X18109278Y-4140701D01*
X18117644Y-4156353D01*
X18117644Y-4156353D01*
X18122796Y-4173337D01*
X18124536Y-4191000D01*
X18122796Y-4208663D01*
X18119362Y-4219985D01*
X18117644Y-4225647D01*
X18110235Y-4239509D01*
X18109278Y-4241299D01*
X18106345Y-4244873D01*
X18098019Y-4255019D01*
X18087873Y-4263345D01*
X18084299Y-4266278D01*
X18084299Y-4266278D01*
X18068647Y-4274644D01*
X18062985Y-4276362D01*
X18051663Y-4279796D01*
X18045044Y-4280448D01*
X18038426Y-4281100D01*
X18029574Y-4281100D01*
X18022956Y-4280448D01*
X18016337Y-4279796D01*
X18005015Y-4276362D01*
X17999353Y-4274644D01*
X17983701Y-4266278D01*
X17983701Y-4266278D01*
X17980127Y-4263345D01*
X17969981Y-4255019D01*
X17961655Y-4244873D01*
X17958722Y-4241299D01*
X17957765Y-4239509D01*
X17950356Y-4225647D01*
X17948638Y-4219985D01*
X17945204Y-4208663D01*
X17943464Y-4191000D01*
X17945204Y-4173337D01*
X17950356Y-4156353D01*
X17950356Y-4156353D01*
X17958722Y-4140701D01*
X17958722Y-4140701D01*
X17961655Y-4137127D01*
X17969981Y-4126981D01*
X17980127Y-4118655D01*
X17983701Y-4115722D01*
X17985491Y-4114765D01*
X17999353Y-4107356D01*
X18005015Y-4105638D01*
X18016337Y-4102204D01*
X18022956Y-4101552D01*
X18029574Y-4100900D01*
X18038426Y-4100900D01*
X18045044Y-4101552D01*
X18045044Y-4101552D01*
G37*
G36*
X25665044Y-4101552D02*
X25671663Y-4102204D01*
X25682985Y-4105638D01*
X25688647Y-4107356D01*
X25702509Y-4114765D01*
X25704299Y-4115722D01*
X25707873Y-4118655D01*
X25718019Y-4126981D01*
X25726345Y-4137127D01*
X25729278Y-4140701D01*
X25729278Y-4140701D01*
X25737644Y-4156353D01*
X25737644Y-4156353D01*
X25742796Y-4173337D01*
X25744536Y-4191000D01*
X25742796Y-4208663D01*
X25739362Y-4219985D01*
X25737644Y-4225647D01*
X25730235Y-4239509D01*
X25729278Y-4241299D01*
X25726345Y-4244873D01*
X25718019Y-4255019D01*
X25707873Y-4263345D01*
X25704299Y-4266278D01*
X25704299Y-4266278D01*
X25688647Y-4274644D01*
X25682985Y-4276362D01*
X25671663Y-4279796D01*
X25665044Y-4280448D01*
X25658426Y-4281100D01*
X25649574Y-4281100D01*
X25642956Y-4280448D01*
X25636337Y-4279796D01*
X25625015Y-4276362D01*
X25619353Y-4274644D01*
X25603701Y-4266278D01*
X25603701Y-4266278D01*
X25600127Y-4263345D01*
X25589981Y-4255019D01*
X25581655Y-4244873D01*
X25578722Y-4241299D01*
X25577765Y-4239509D01*
X25570356Y-4225647D01*
X25568638Y-4219985D01*
X25565204Y-4208663D01*
X25563464Y-4191000D01*
X25565204Y-4173337D01*
X25570356Y-4156353D01*
X25570356Y-4156353D01*
X25578722Y-4140701D01*
X25578722Y-4140701D01*
X25581655Y-4137127D01*
X25589981Y-4126981D01*
X25600127Y-4118655D01*
X25603701Y-4115722D01*
X25605491Y-4114765D01*
X25619353Y-4107356D01*
X25625015Y-4105638D01*
X25636337Y-4102204D01*
X25642956Y-4101552D01*
X25649574Y-4100900D01*
X25658426Y-4100900D01*
X25665044Y-4101552D01*
X25665044Y-4101552D01*
G37*
G36*
X19315044Y-4101552D02*
X19321663Y-4102204D01*
X19332985Y-4105638D01*
X19338647Y-4107356D01*
X19352509Y-4114765D01*
X19354299Y-4115722D01*
X19357873Y-4118655D01*
X19368019Y-4126981D01*
X19376345Y-4137127D01*
X19379278Y-4140701D01*
X19379278Y-4140701D01*
X19387644Y-4156353D01*
X19387644Y-4156353D01*
X19392796Y-4173337D01*
X19394536Y-4191000D01*
X19392796Y-4208663D01*
X19389362Y-4219985D01*
X19387644Y-4225647D01*
X19380235Y-4239509D01*
X19379278Y-4241299D01*
X19376345Y-4244873D01*
X19368019Y-4255019D01*
X19357873Y-4263345D01*
X19354299Y-4266278D01*
X19354299Y-4266278D01*
X19338647Y-4274644D01*
X19332985Y-4276362D01*
X19321663Y-4279796D01*
X19315044Y-4280448D01*
X19308426Y-4281100D01*
X19299574Y-4281100D01*
X19292956Y-4280448D01*
X19286337Y-4279796D01*
X19275015Y-4276362D01*
X19269353Y-4274644D01*
X19253701Y-4266278D01*
X19253701Y-4266278D01*
X19250127Y-4263345D01*
X19239981Y-4255019D01*
X19231655Y-4244873D01*
X19228722Y-4241299D01*
X19227765Y-4239509D01*
X19220356Y-4225647D01*
X19218638Y-4219985D01*
X19215204Y-4208663D01*
X19213464Y-4191000D01*
X19215204Y-4173337D01*
X19220356Y-4156353D01*
X19220356Y-4156353D01*
X19228722Y-4140701D01*
X19228722Y-4140701D01*
X19231655Y-4137127D01*
X19239981Y-4126981D01*
X19250127Y-4118655D01*
X19253701Y-4115722D01*
X19255491Y-4114765D01*
X19269353Y-4107356D01*
X19275015Y-4105638D01*
X19286337Y-4102204D01*
X19292956Y-4101552D01*
X19299574Y-4100900D01*
X19308426Y-4100900D01*
X19315044Y-4101552D01*
X19315044Y-4101552D01*
G37*
M02*
