M48
;DRILL file {KiCad (5.0.2)-1} date 12/27/2018 8:38:14 PM
;FORMAT={-:-/ absolute / inch / decimal}
FMAT,2
INCH,TZ
T1C0.0157
T2C0.0295
T3C0.0300
T4C0.0315
T5C0.0354
T6C0.0362
T7C0.0394
T8C0.0402
T9C0.0433
T10C0.0492
T11C0.0512
T12C0.0917
%
G90
G05
T1
X7.54Y-1.89
X7.54Y-1.975
X7.74Y-1.89
X7.74Y-2.015
X7.875Y-9.34
X7.95Y-1.89
X7.95Y-2.055
X8.005Y-9.415
X9.24Y-9.415
X9.405Y-9.505
X11.245Y-2.875
X11.3Y-8.365
X11.335Y-7.11
X11.385Y-7.06
X11.385Y-8.31
X11.39Y-2.875
X11.415Y-3.865
X11.415Y-4.24
X11.415Y-5.965
X11.445Y-6.805
X11.445Y-7.01
X11.445Y-8.365
X11.47Y-3.92
X11.47Y-4.305
X11.49Y-6.76
X11.49Y-6.965
X11.53Y-2.875
X11.53Y-3.965
X11.53Y-4.37
X11.58Y-4.005
X11.58Y-4.435
X12.025Y-5.855
X12.315Y-5.64
X12.355Y-4.465
X12.3662Y-6.215
X12.375Y-5.495
X12.41Y-5.115
X12.42Y-4.805
T2
X8.775Y-2.7
X8.775Y-2.75
X8.775Y-2.8
X11.58Y-5.515
X11.58Y-5.565
X11.58Y-5.615
X11.58Y-5.965
X11.58Y-6.015
X11.58Y-6.065
X9.55Y-8.5
X9.55Y-8.55
X9.55Y-8.6
X11.58Y-5.29
X11.58Y-5.34
X11.58Y-5.39
X11.58Y-5.74
X11.58Y-5.79
X11.58Y-5.84
T3
X12.115Y-4.72
X12.215Y-4.62
X12.215Y-4.82
X12.315Y-4.72
T4
X11.9Y-6.25
X12.2Y-6.25
T5
X8.505Y-2.4
X8.505Y-2.5
X8.175Y-2.45
X8.275Y-2.45
X8.5Y-2.125
X8.5Y-2.225
X8.725Y-2.45
X8.825Y-2.45
X8.5Y-2.675
X8.5Y-2.775
T6
X4.6713Y-5.1
X4.6713Y-5.1984
X4.75Y-5.1
X4.75Y-5.1984
T7
X7.Y-1.65
X7.1Y-1.65
X7.2Y-1.65
X7.3Y-1.65
X7.4Y-1.65
X7.5Y-1.65
X7.6Y-1.65
X7.7Y-1.65
X9.35Y-9.65
X9.45Y-9.65
X9.55Y-9.65
X9.65Y-9.65
X9.75Y-9.65
X9.85Y-9.65
X9.95Y-9.65
X10.05Y-9.65
X12.045Y-6.455
X12.145Y-6.455
X12.245Y-6.455
X12.345Y-6.455
X12.445Y-6.455
X11.22Y-8.91
X11.2907Y-8.8393
X11.3614Y-8.7686
X11.4321Y-8.6979
X11.5028Y-8.6272
X11.5736Y-8.5564
X11.6443Y-8.4857
X11.715Y-8.415
X11.2464Y-2.3964
X11.3172Y-2.4672
X11.3879Y-2.5379
X11.4586Y-2.6086
X11.5293Y-2.6793
X11.6Y-2.75
X11.6707Y-2.8207
X11.7414Y-2.8914
X9.4Y-1.65
X9.5Y-1.65
X9.6Y-1.65
X9.7Y-1.65
X9.8Y-1.65
X9.9Y-1.65
X10.Y-1.65
X10.1Y-1.65
X6.825Y-9.645
X6.925Y-9.645
X7.025Y-9.645
X7.125Y-9.645
X7.225Y-9.645
X7.325Y-9.645
X7.425Y-9.645
X7.525Y-9.645
X5.1986Y-8.3186
X5.2693Y-8.3893
X5.34Y-8.46
X5.4107Y-8.5307
X5.4814Y-8.6014
X5.5521Y-8.6721
X5.6228Y-8.7428
X5.6936Y-8.8136
X5.235Y-2.9
X5.3057Y-2.8293
X5.3764Y-2.7586
X5.4472Y-2.6878
X5.5179Y-2.6171
X5.5886Y-2.5464
X5.6593Y-2.4757
X5.73Y-2.405
T8
X8.35Y-8.5
X8.45Y-8.5
X8.55Y-8.5
X8.65Y-8.5
T9
X12.57Y-4.9741
X12.57Y-5.23
X12.7472Y-4.9741
X12.7472Y-5.23
X5.1Y-5.2
X5.5Y-5.2
T10
X4.9719Y-5.4213
X5.1766Y-6.5787
X5.3734Y-6.5787
X5.5781Y-5.4213
T11
X5.1547Y-6.9
X5.45Y-6.9
T12
X4.5646Y-4.9122
X4.5646Y-5.3862
T0
M30
